<svg xmlns="http://www.w3.org/2000/svg" xmlns:xlink="http://www.w3.org/1999/xlink" contentStyleType="text/css" data-diagram-type="CLASS" height="1095px" preserveAspectRatio="none" style="width:1339px;height:1095px;background:#FFFFFF;" version="1.1" viewBox="0 0 1339 1095" width="1339px" zoomAndPan="magnify"><title>core-cpp - &#1082;&#1083;&#1072;&#1089;&#1089;-&#1076;&#1080;&#1072;&#1075;&#1088;&#1072;&#1084;&#1084;&#1072; (&#1095;&#1077;&#1088;&#1085;&#1086;&#1074;&#1086;&#1081; &#1076;&#1080;&#1079;&#1072;&#1081;&#1085;)</title><defs/><g><g class="title" data-source-line="2"><text fill="#000000" font-family="sans-serif" font-size="14" font-weight="bold" lengthAdjust="spacing" textLength="382.751" x="471.1245" y="22.9951">core-cpp - &#1082;&#1083;&#1072;&#1089;&#1089;-&#1076;&#1080;&#1072;&#1075;&#1088;&#1072;&#1084;&#1084;&#1072; (&#1095;&#1077;&#1088;&#1085;&#1086;&#1074;&#1086;&#1081; &#1076;&#1080;&#1079;&#1072;&#1081;&#1085;)</text></g><!--cluster core-cpp--><g class="cluster" data-entity="core-cpp" data-source-line="6" data-uid="ent0002" id="cluster_core-cpp"><path d="M8.5,43.2969 L77.9688,43.2969 A3.75,3.75 0 0 1 80.4688,45.7969 L87.4688,65.5938 L1329.5,65.5938 A2.5,2.5 0 0 1 1332,68.0938 L1332,1085.7969 A2.5,2.5 0 0 1 1329.5,1088.2969 L8.5,1088.2969 A2.5,2.5 0 0 1 6,1085.7969 L6,45.7969 A2.5,2.5 0 0 1 8.5,43.2969" fill="none" style="stroke:#000000;stroke-width:1.5;"/><line style="stroke:#000000;stroke-width:1.5;" x1="6" x2="87.4688" y1="65.5938" y2="65.5938"/><text fill="#000000" font-family="sans-serif" font-size="14" font-weight="bold" lengthAdjust="spacing" textLength="68.4688" x="10" y="58.292">core-cpp</text></g><!--class TemplateAnalyzer--><g class="entity" data-entity="TemplateAnalyzer" data-source-line="8" data-uid="ent0003" id="entity_TemplateAnalyzer"><rect fill="#F1F1F1" height="96.8906" rx="2.5" ry="2.5" style="stroke:#181818;stroke-width:0.5;" width="609.8369" x="252" y="78.2969"/><ellipse cx="489.0771" cy="94.2969" fill="#ADD1B2" rx="11" ry="11" style="stroke:#181818;stroke-width:1;"/><path d="M492.0459,99.9375 Q491.4678,100.2344 490.8271,100.375 Q490.1865,100.5313 489.4834,100.5313 Q486.9834,100.5313 485.6553,98.8906 Q484.3428,97.2344 484.3428,94.1094 Q484.3428,90.9844 485.6553,89.3281 Q486.9834,87.6719 489.4834,87.6719 Q490.1865,87.6719 490.8271,87.8281 Q491.4834,87.9844 492.0459,88.2813 L492.0459,91 Q491.4209,90.4219 490.8271,90.1563 Q490.2334,89.875 489.6084,89.875 Q488.2646,89.875 487.5771,90.9531 Q486.8896,92.0156 486.8896,94.1094 Q486.8896,96.2031 487.5771,97.2813 Q488.2646,98.3438 489.6084,98.3438 Q490.2334,98.3438 490.8271,98.0781 Q491.4209,97.7969 492.0459,97.2188 L492.0459,99.9375 Z " fill="#000000"/><text fill="#000000" font-family="sans-serif" font-size="14" lengthAdjust="spacing" textLength="127.1826" x="509.5771" y="99.1436">TemplateAnalyzer</text><line style="stroke:#181818;stroke-width:0.5;" x1="253" x2="860.8369" y1="110.2969" y2="110.2969"/><text fill="#000000" font-family="sans-serif" font-size="14" lengthAdjust="spacing" textLength="142.9873" x="258" y="127.292">-impl: AnalyzerImpl*</text><line style="stroke:#181818;stroke-width:0.5;" x1="253" x2="860.8369" y1="134.5938" y2="134.5938"/><text fill="#000000" font-family="sans-serif" font-size="14" lengthAdjust="spacing" textLength="597.8369" x="258" y="151.5889">+AnalysisResult analyzeTranslationUnit(config: AppConfig, compileCommands: Path)</text><text fill="#000000" font-family="sans-serif" font-size="14" lengthAdjust="spacing" textLength="412.8428" x="258" y="167.8857">+AnalysisResult analyzeFile(config: AppConfig, path: Path)</text></g><!--class AnalyzerImpl--><g class="entity" data-entity="AnalyzerImpl" data-source-line="14" data-uid="ent0004" id="entity_AnalyzerImpl"><rect fill="#F1F1F1" height="113.1875" rx="2.5" ry="2.5" style="stroke:#181818;stroke-width:0.5;" width="470.6025" x="321.5" y="235.2969"/><ellipse cx="506.8188" cy="251.2969" fill="#ADD1B2" rx="11" ry="11" style="stroke:#181818;stroke-width:1;"/><path d="M509.7876,256.9375 Q509.2095,257.2344 508.5688,257.375 Q507.9282,257.5313 507.2251,257.5313 Q504.7251,257.5313 503.397,255.8906 Q502.0845,254.2344 502.0845,251.1094 Q502.0845,247.9844 503.397,246.3281 Q504.7251,244.6719 507.2251,244.6719 Q507.9282,244.6719 508.5688,244.8281 Q509.2251,244.9844 509.7876,245.2813 L509.7876,248 Q509.1626,247.4219 508.5688,247.1563 Q507.9751,246.875 507.3501,246.875 Q506.0063,246.875 505.3188,247.9531 Q504.6313,249.0156 504.6313,251.1094 Q504.6313,253.2031 505.3188,254.2813 Q506.0063,255.3438 507.3501,255.3438 Q507.9751,255.3438 508.5688,255.0781 Q509.1626,254.7969 509.7876,254.2188 L509.7876,256.9375 Z " fill="#000000"/><text fill="#000000" font-family="sans-serif" font-size="14" lengthAdjust="spacing" textLength="91.4648" x="527.3188" y="256.1436">AnalyzerImpl</text><line style="stroke:#181818;stroke-width:0.5;" x1="322.5" x2="791.1025" y1="267.2969" y2="267.2969"/><text fill="#000000" font-family="sans-serif" font-size="14" lengthAdjust="spacing" textLength="129.3291" x="327.5" y="284.292">-config: AppConfig</text><text fill="#000000" font-family="sans-serif" font-size="14" lengthAdjust="spacing" textLength="202.2686" x="327.5" y="300.5889">-issueRegistry: IssueRegistry</text><line style="stroke:#181818;stroke-width:0.5;" x1="322.5" x2="791.1025" y1="307.8906" y2="307.8906"/><text fill="#000000" font-family="sans-serif" font-size="14" lengthAdjust="spacing" textLength="458.6025" x="327.5" y="324.8857">+runOnTranslationUnit(compileCommands: Path): AnalysisResult</text><text fill="#000000" font-family="sans-serif" font-size="14" lengthAdjust="spacing" textLength="273.6084" x="327.5" y="341.1826">+runOnFile(path: Path): AnalysisResult</text></g><!--class AppConfig--><g class="entity" data-entity="AppConfig" data-source-line="21" data-uid="ent0005" id="entity_AppConfig"><rect fill="#F1F1F1" height="129.4844" rx="2.5" ry="2.5" style="stroke:#181818;stroke-width:0.5;" width="348.7314" x="22.5" y="408.2969"/><ellipse cx="156.481" cy="424.2969" fill="#ADD1B2" rx="11" ry="11" style="stroke:#181818;stroke-width:1;"/><path d="M159.4497,429.9375 Q158.8716,430.2344 158.231,430.375 Q157.5903,430.5313 156.8872,430.5313 Q154.3872,430.5313 153.0591,428.8906 Q151.7466,427.2344 151.7466,424.1094 Q151.7466,420.9844 153.0591,419.3281 Q154.3872,417.6719 156.8872,417.6719 Q157.5903,417.6719 158.231,417.8281 Q158.8872,417.9844 159.4497,418.2813 L159.4497,421 Q158.8247,420.4219 158.231,420.1563 Q157.6372,419.875 157.0122,419.875 Q155.6685,419.875 154.981,420.9531 Q154.2935,422.0156 154.2935,424.1094 Q154.2935,426.2031 154.981,427.2813 Q155.6685,428.3438 157.0122,428.3438 Q157.6372,428.3438 158.231,428.0781 Q158.8247,427.7969 159.4497,427.2188 L159.4497,429.9375 Z " fill="#000000"/><text fill="#000000" font-family="sans-serif" font-size="14" lengthAdjust="spacing" textLength="72.2695" x="176.981" y="429.1436">AppConfig</text><line style="stroke:#181818;stroke-width:0.5;" x1="23.5" x2="370.2314" y1="440.2969" y2="440.2969"/><text fill="#000000" font-family="sans-serif" font-size="14" lengthAdjust="spacing" textLength="178.5547" x="28.5" y="457.292">+maxTemplateDepth: int</text><text fill="#000000" font-family="sans-serif" font-size="14" lengthAdjust="spacing" textLength="336.7314" x="28.5" y="473.5889">+enabledIssueTypes: set&lt;TemplateIssueType&gt;</text><text fill="#000000" font-family="sans-serif" font-size="14" lengthAdjust="spacing" textLength="109.8193" x="28.5" y="489.8857">+issueLimit: int</text><text fill="#000000" font-family="sans-serif" font-size="14" lengthAdjust="spacing" textLength="124.8584" x="28.5" y="506.1826">+timeLimitMs: int</text><line style="stroke:#181818;stroke-width:0.5;" x1="23.5" x2="370.2314" y1="513.4844" y2="513.4844"/><text fill="#000000" font-family="sans-serif" font-size="14" lengthAdjust="spacing" textLength="281.1074" x="28.5" y="530.4795">+static fromJson(path: Path): AppConfig</text></g><!--class IssueRegistry--><g class="entity" data-entity="IssueRegistry" data-source-line="29" data-uid="ent0006" id="entity_IssueRegistry"><rect fill="#F1F1F1" height="113.1875" rx="2.5" ry="2.5" style="stroke:#181818;stroke-width:0.5;" width="241.5234" x="436" y="597.2969"/><ellipse cx="505.4395" cy="613.2969" fill="#ADD1B2" rx="11" ry="11" style="stroke:#181818;stroke-width:1;"/><path d="M508.4082,618.9375 Q507.8301,619.2344 507.1895,619.375 Q506.5488,619.5313 505.8457,619.5313 Q503.3457,619.5313 502.0176,617.8906 Q500.7051,616.2344 500.7051,613.1094 Q500.7051,609.9844 502.0176,608.3281 Q503.3457,606.6719 505.8457,606.6719 Q506.5488,606.6719 507.1895,606.8281 Q507.8457,606.9844 508.4082,607.2813 L508.4082,610 Q507.7832,609.4219 507.1895,609.1563 Q506.5957,608.875 505.9707,608.875 Q504.627,608.875 503.9395,609.9531 Q503.252,611.0156 503.252,613.1094 Q503.252,615.2031 503.9395,616.2813 Q504.627,617.3438 505.9707,617.3438 Q506.5957,617.3438 507.1895,617.0781 Q507.7832,616.7969 508.4082,616.2188 L508.4082,618.9375 Z " fill="#000000"/><text fill="#000000" font-family="sans-serif" font-size="14" lengthAdjust="spacing" textLength="94.1445" x="525.9395" y="618.1436">IssueRegistry</text><line style="stroke:#181818;stroke-width:0.5;" x1="437" x2="676.5234" y1="629.2969" y2="629.2969"/><text fill="#000000" font-family="sans-serif" font-size="14" lengthAdjust="spacing" textLength="161.5469" x="442" y="646.292">-issues: vector&lt;Issue&gt;</text><line style="stroke:#181818;stroke-width:0.5;" x1="437" x2="676.5234" y1="653.5938" y2="653.5938"/><text fill="#000000" font-family="sans-serif" font-size="14" lengthAdjust="spacing" textLength="197.0801" x="442" y="670.5889">+register(issue: Issue): void</text><text fill="#000000" font-family="sans-serif" font-size="14" lengthAdjust="spacing" textLength="229.5234" x="442" y="686.8857">+getAll(): const vector&lt;Issue&gt;&amp;</text><text fill="#000000" font-family="sans-serif" font-size="14" lengthAdjust="spacing" textLength="98.6016" x="442" y="703.1826">+size(): size_t</text></g><!--class Issue--><g class="entity" data-entity="Issue" data-source-line="36" data-uid="ent0007" id="entity_Issue"><rect fill="#F1F1F1" height="129.4844" rx="2.5" ry="2.5" style="stroke:#181818;stroke-width:0.5;" width="200.9727" x="456.5" y="770.2969"/><ellipse cx="534.6348" cy="786.2969" fill="#ADD1B2" rx="11" ry="11" style="stroke:#181818;stroke-width:1;"/><path d="M537.6035,791.9375 Q537.0254,792.2344 536.3848,792.375 Q535.7441,792.5313 535.041,792.5313 Q532.541,792.5313 531.2129,790.8906 Q529.9004,789.2344 529.9004,786.1094 Q529.9004,782.9844 531.2129,781.3281 Q532.541,779.6719 535.041,779.6719 Q535.7441,779.6719 536.3848,779.8281 Q537.041,779.9844 537.6035,780.2813 L537.6035,783 Q536.9785,782.4219 536.3848,782.1563 Q535.791,781.875 535.166,781.875 Q533.8223,781.875 533.1348,782.9531 Q532.4473,784.0156 532.4473,786.1094 Q532.4473,788.2031 533.1348,789.2813 Q533.8223,790.3438 535.166,790.3438 Q535.791,790.3438 536.3848,790.0781 Q536.9785,789.7969 537.6035,789.2188 L537.6035,791.9375 Z " fill="#000000"/><text fill="#000000" font-family="sans-serif" font-size="14" lengthAdjust="spacing" textLength="36.2031" x="555.1348" y="791.1436">Issue</text><line style="stroke:#181818;stroke-width:0.5;" x1="457.5" x2="656.4727" y1="802.2969" y2="802.2969"/><text fill="#000000" font-family="sans-serif" font-size="14" lengthAdjust="spacing" textLength="73.8623" x="462.5" y="819.292">+id: string</text><text fill="#000000" font-family="sans-serif" font-size="14" lengthAdjust="spacing" textLength="188.9727" x="462.5" y="835.5889">+type: TemplateIssueType</text><text fill="#000000" font-family="sans-serif" font-size="14" lengthAdjust="spacing" textLength="124.0039" x="462.5" y="851.8857">+message: string</text><text fill="#000000" font-family="sans-serif" font-size="14" lengthAdjust="spacing" textLength="184.2969" x="462.5" y="868.1826">+location: SourceLocation</text><text fill="#000000" font-family="sans-serif" font-size="14" lengthAdjust="spacing" textLength="107.7275" x="462.5" y="884.4795">+details: string</text><line style="stroke:#181818;stroke-width:0.5;" x1="457.5" x2="656.4727" y1="891.7813" y2="891.7813"/></g><!--class TemplateIssueType--><g class="entity" data-entity="TemplateIssueType" data-source-line="44" data-uid="ent0008" id="entity_TemplateIssueType"><rect fill="#F1F1F1" height="113.1875" rx="2.5" ry="2.5" style="stroke:#181818;stroke-width:0.5;" width="168.8008" x="377.5" y="959.2969"/><ellipse cx="392.5" cy="975.2969" fill="#EB937F" rx="11" ry="11" style="stroke:#181818;stroke-width:1;"/><path d="M396.6094,981.2969 L388.8906,981.2969 L388.8906,968.9063 L396.6094,968.9063 L396.6094,971.0625 L391.3438,971.0625 L391.3438,973.7344 L396.1094,973.7344 L396.1094,975.8906 L391.3438,975.8906 L391.3438,979.1406 L396.6094,979.1406 L396.6094,981.2969 Z " fill="#000000"/><text fill="#000000" font-family="sans-serif" font-size="14" lengthAdjust="spacing" textLength="136.8008" x="406.5" y="980.1436">TemplateIssueType</text><line style="stroke:#181818;stroke-width:0.5;" x1="378.5" x2="545.3008" y1="991.2969" y2="991.2969"/><text fill="#000000" font-family="sans-serif" font-size="14" lengthAdjust="spacing" textLength="76.624" x="383.5" y="1008.292">NoMember</text><text fill="#000000" font-family="sans-serif" font-size="14" lengthAdjust="spacing" textLength="143.7188" x="383.5" y="1024.5889">NoMatchingFunction</text><text fill="#000000" font-family="sans-serif" font-size="14" lengthAdjust="spacing" textLength="101.876" x="383.5" y="1040.8857">TypeMismatch</text><text fill="#000000" font-family="sans-serif" font-size="14" lengthAdjust="spacing" textLength="132.1523" x="383.5" y="1057.1826">SubstitutionFailure</text><line style="stroke:#181818;stroke-width:0.5;" x1="378.5" x2="545.3008" y1="1064.4844" y2="1064.4844"/></g><!--class SourceLocation--><g class="entity" data-entity="SourceLocation" data-source-line="51" data-uid="ent0009" id="entity_SourceLocation"><rect fill="#F1F1F1" height="96.8906" rx="2.5" ry="2.5" style="stroke:#181818;stroke-width:0.5;" width="139.8506" x="582" y="967.2969"/><ellipse cx="597" cy="983.2969" fill="#ADD1B2" rx="11" ry="11" style="stroke:#181818;stroke-width:1;"/><path d="M599.9688,988.9375 Q599.3906,989.2344 598.75,989.375 Q598.1094,989.5313 597.4063,989.5313 Q594.9063,989.5313 593.5781,987.8906 Q592.2656,986.2344 592.2656,983.1094 Q592.2656,979.9844 593.5781,978.3281 Q594.9063,976.6719 597.4063,976.6719 Q598.1094,976.6719 598.75,976.8281 Q599.4063,976.9844 599.9688,977.2813 L599.9688,980 Q599.3438,979.4219 598.75,979.1563 Q598.1563,978.875 597.5313,978.875 Q596.1875,978.875 595.5,979.9531 Q594.8125,981.0156 594.8125,983.1094 Q594.8125,985.2031 595.5,986.2813 Q596.1875,987.3438 597.5313,987.3438 Q598.1563,987.3438 598.75,987.0781 Q599.3438,986.7969 599.9688,986.2188 L599.9688,988.9375 Z " fill="#000000"/><text fill="#000000" font-family="sans-serif" font-size="14" lengthAdjust="spacing" textLength="107.8506" x="611" y="988.1436">SourceLocation</text><line style="stroke:#181818;stroke-width:0.5;" x1="583" x2="720.8506" y1="999.2969" y2="999.2969"/><text fill="#000000" font-family="sans-serif" font-size="14" lengthAdjust="spacing" textLength="82.4072" x="588" y="1016.292">+file: string</text><text fill="#000000" font-family="sans-serif" font-size="14" lengthAdjust="spacing" textLength="64.415" x="588" y="1032.5889">+line: int</text><text fill="#000000" font-family="sans-serif" font-size="14" lengthAdjust="spacing" textLength="90.6855" x="588" y="1048.8857">+column: int</text><line style="stroke:#181818;stroke-width:0.5;" x1="583" x2="720.8506" y1="1056.1875" y2="1056.1875"/></g><!--class AstVisitor--><g class="entity" data-entity="AstVisitor" data-source-line="57" data-uid="ent0010" id="entity_AstVisitor"><rect fill="#F1F1F1" height="96.8906" rx="2.5" ry="2.5" style="stroke:#181818;stroke-width:0.5;" width="523.2598" x="444.5" y="424.2969"/><ellipse cx="668.4692" cy="440.2969" fill="#ADD1B2" rx="11" ry="11" style="stroke:#181818;stroke-width:1;"/><path d="M671.438,445.9375 Q670.8599,446.2344 670.2192,446.375 Q669.5786,446.5313 668.8755,446.5313 Q666.3755,446.5313 665.0474,444.8906 Q663.7349,443.2344 663.7349,440.1094 Q663.7349,436.9844 665.0474,435.3281 Q666.3755,433.6719 668.8755,433.6719 Q669.5786,433.6719 670.2192,433.8281 Q670.8755,433.9844 671.438,434.2813 L671.438,437 Q670.813,436.4219 670.2192,436.1563 Q669.6255,435.875 669.0005,435.875 Q667.6567,435.875 666.9692,436.9531 Q666.2817,438.0156 666.2817,440.1094 Q666.2817,442.2031 666.9692,443.2813 Q667.6567,444.3438 669.0005,444.3438 Q669.6255,444.3438 670.2192,444.0781 Q670.813,443.7969 671.438,443.2188 L671.438,445.9375 Z " fill="#000000"/><text fill="#000000" font-family="sans-serif" font-size="14" lengthAdjust="spacing" textLength="66.8213" x="688.9692" y="445.1436">AstVisitor</text><line style="stroke:#181818;stroke-width:0.5;" x1="445.5" x2="966.7598" y1="456.2969" y2="456.2969"/><line style="stroke:#181818;stroke-width:0.5;" x1="445.5" x2="966.7598" y1="464.2969" y2="464.2969"/><text fill="#000000" font-family="sans-serif" font-size="14" lengthAdjust="spacing" textLength="193.2998" x="450.5" y="481.292">+visit(node: AstNode): void</text><text fill="#000000" font-family="sans-serif" font-size="14" lengthAdjust="spacing" textLength="353.0352" x="450.5" y="497.5889">-checkTemplateInstantiation(node: AstNode): void</text><text fill="#000000" font-family="sans-serif" font-size="14" lengthAdjust="spacing" textLength="511.2598" x="450.5" y="513.8857">-reportIssue(type: TemplateIssueType, node: AstNode, msg: string): void</text></g><!--class CompilerFrontend--><g class="entity" data-entity="CompilerFrontend" data-source-line="63" data-uid="ent0011" id="entity_CompilerFrontend"><rect fill="#F1F1F1" height="80.5938" rx="2.5" ry="2.5" style="stroke:#181818;stroke-width:0.5;" width="312.6377" x="1002.5" y="432.2969"/><ellipse cx="1091.5073" cy="448.2969" fill="#B4A7E5" rx="11" ry="11" style="stroke:#181818;stroke-width:1;"/><path d="M1087.4292,444.0625 L1087.4292,441.9063 L1094.8198,441.9063 L1094.8198,444.0625 L1092.3511,444.0625 L1092.3511,452.1406 L1094.8198,452.1406 L1094.8198,454.2969 L1087.4292,454.2969 L1087.4292,452.1406 L1089.8979,452.1406 L1089.8979,444.0625 L1087.4292,444.0625 Z " fill="#000000"/><text fill="#000000" font-family="sans-serif" font-size="14" font-style="italic" lengthAdjust="spacing" textLength="126.123" x="1112.0073" y="453.1436">CompilerFrontend</text><line style="stroke:#181818;stroke-width:0.5;" x1="1003.5" x2="1314.1377" y1="464.2969" y2="464.2969"/><line style="stroke:#181818;stroke-width:0.5;" x1="1003.5" x2="1314.1377" y1="472.2969" y2="472.2969"/><text fill="#000000" font-family="sans-serif" font-size="14" lengthAdjust="spacing" textLength="300.6377" x="1008.5" y="489.292">+parse(compileCommands: Path): AstRoot</text><text fill="#000000" font-family="sans-serif" font-size="14" lengthAdjust="spacing" textLength="222.4824" x="1008.5" y="505.5889">+parseFile(path: Path): AstRoot</text></g><!--class ClangFrontend--><g class="entity" data-entity="ClangFrontend" data-source-line="68" data-uid="ent0012" id="entity_ClangFrontend"><rect fill="#F1F1F1" height="48" rx="2.5" ry="2.5" style="stroke:#181818;stroke-width:0.5;" width="135.1133" x="1091.5" y="629.7969"/><ellipse cx="1106.5" cy="645.7969" fill="#ADD1B2" rx="11" ry="11" style="stroke:#181818;stroke-width:1;"/><path d="M1109.4688,651.4375 Q1108.8906,651.7344 1108.25,651.875 Q1107.6094,652.0313 1106.9063,652.0313 Q1104.4063,652.0313 1103.0781,650.3906 Q1101.7656,648.7344 1101.7656,645.6094 Q1101.7656,642.4844 1103.0781,640.8281 Q1104.4063,639.1719 1106.9063,639.1719 Q1107.6094,639.1719 1108.25,639.3281 Q1108.9063,639.4844 1109.4688,639.7813 L1109.4688,642.5 Q1108.8438,641.9219 1108.25,641.6563 Q1107.6563,641.375 1107.0313,641.375 Q1105.6875,641.375 1105,642.4531 Q1104.3125,643.5156 1104.3125,645.6094 Q1104.3125,647.7031 1105,648.7813 Q1105.6875,649.8438 1107.0313,649.8438 Q1107.6563,649.8438 1108.25,649.5781 Q1108.8438,649.2969 1109.4688,648.7188 L1109.4688,651.4375 Z " fill="#000000"/><text fill="#000000" font-family="sans-serif" font-size="14" lengthAdjust="spacing" textLength="103.1133" x="1120.5" y="650.6436">ClangFrontend</text><line style="stroke:#181818;stroke-width:0.5;" x1="1092.5" x2="1225.6133" y1="661.7969" y2="661.7969"/><line style="stroke:#181818;stroke-width:0.5;" x1="1092.5" x2="1225.6133" y1="669.7969" y2="669.7969"/></g><!--reverse link CompilerFrontend to ClangFrontend--><g class="link" data-entity-1="CompilerFrontend" data-entity-2="ClangFrontend" data-uid="lnk13" id="link_CompilerFrontend_ClangFrontend"><path d="M1159,531.5269 C1159,567.1569 1159,600.2369 1159,629.6069" fill="none" id="CompilerFrontend-backto-ClangFrontend" style="stroke:#181818;stroke-width:1;stroke-dasharray:7,7;"/><polygon fill="none" points="1159,513.5269,1153,531.5269,1165,531.5269,1159,513.5269" style="stroke:#181818;stroke-width:1;"/></g><!--link TemplateAnalyzer to AnalyzerImpl--><g class="link" data-entity-1="TemplateAnalyzer" data-entity-2="AnalyzerImpl" data-source-line="72" data-uid="lnk14" id="link_TemplateAnalyzer_AnalyzerImpl"><path codeLine="72" d="M557,175.3769 C557,194.0769 557,209.6769 557,229.0969" fill="none" id="TemplateAnalyzer-to-AnalyzerImpl" style="stroke:#181818;stroke-width:1;"/><polygon fill="#181818" points="557,235.0969,561,226.0969,557,230.0969,553,226.0969,557,235.0969" style="stroke:#181818;stroke-width:1;"/></g><!--link AnalyzerImpl to AppConfig--><g class="link" data-entity-1="AnalyzerImpl" data-entity-2="AppConfig" data-source-line="73" data-uid="lnk15" id="link_AnalyzerImpl_AppConfig"><path codeLine="73" d="M445.07,348.4569 C406.99,367.3869 369.5131,386.0267 330.2731,405.5267" fill="none" id="AnalyzerImpl-to-AppConfig" style="stroke:#181818;stroke-width:1;"/><polygon fill="#181818" points="324.9,408.1969,334.7398,407.7738,329.3776,405.9718,331.1796,400.6096,324.9,408.1969" style="stroke:#181818;stroke-width:1;"/></g><!--link AnalyzerImpl to IssueRegistry--><g class="link" data-entity-1="AnalyzerImpl" data-entity-2="IssueRegistry" data-source-line="74" data-uid="lnk16" id="link_AnalyzerImpl_IssueRegistry"><path codeLine="74" d="M473.2,348.4269 C454.54,365.2669 437.27,385.4369 427,408.2969 C403.51,460.5969 403.51,484.9969 427,537.2969 C437.27,560.1569 450.0857,576.307 468.7457,593.147" fill="none" id="AnalyzerImpl-to-IssueRegistry" style="stroke:#181818;stroke-width:1;"/><polygon fill="#181818" points="473.2,597.1669,469.1984,588.1676,469.4881,593.817,463.8386,594.1066,473.2,597.1669" style="stroke:#181818;stroke-width:1;"/></g><!--link AnalyzerImpl to CompilerFrontend--><g class="link" data-entity-1="AnalyzerImpl" data-entity-2="CompilerFrontend" data-source-line="75" data-uid="lnk17" id="link_AnalyzerImpl_CompilerFrontend"><path codeLine="75" d="M777.17,348.3069 C844.25,366.2669 917.96,387.0569 985,408.2969 C1007.84,415.5269 1026.4753,421.9028 1049.4253,430.1728" fill="none" id="AnalyzerImpl-to-CompilerFrontend" style="stroke:#181818;stroke-width:1;"/><polygon fill="#181818" points="1055.07,432.2069,1047.959,425.3927,1050.3661,430.5118,1045.2469,432.9189,1055.07,432.2069" style="stroke:#181818;stroke-width:1;"/></g><!--link AnalyzerImpl to AstVisitor--><g class="link" data-entity-1="AnalyzerImpl" data-entity-2="AstVisitor" data-source-line="76" data-uid="lnk18" id="link_AnalyzerImpl_AstVisitor"><path codeLine="76" d="M603.33,348.4569 C623.49,372.6769 643.0416,396.1553 662.4016,419.4153" fill="none" id="AnalyzerImpl-to-AstVisitor" style="stroke:#181818;stroke-width:1;"/><polygon fill="#181818" points="666.24,424.0269,663.5568,414.5506,663.0414,420.1839,657.408,419.6684,666.24,424.0269" style="stroke:#181818;stroke-width:1;"/></g><!--link AstVisitor to IssueRegistry--><g class="link" data-entity-1="AstVisitor" data-entity-2="IssueRegistry" data-source-line="77" data-uid="lnk19" id="link_AstVisitor_IssueRegistry"><path codeLine="77" d="M666.07,521.7669 C646.76,544.9669 627.309,568.3358 607.219,592.4658" fill="none" id="AstVisitor-to-IssueRegistry" style="stroke:#181818;stroke-width:1;"/><polygon fill="#181818" points="603.38,597.0769,612.2126,592.7197,606.5792,593.2343,606.0645,587.6009,603.38,597.0769" style="stroke:#181818;stroke-width:1;"/></g><!--link IssueRegistry to Issue--><g class="link" data-entity-1="IssueRegistry" data-entity-2="Issue" data-source-line="78" data-uid="lnk20" id="link_IssueRegistry_Issue"><path codeLine="78" d="M557,710.4569 C557,729.3369 557,744.5769 557,764.0469" fill="none" id="IssueRegistry-to-Issue" style="stroke:#181818;stroke-width:1;"/><polygon fill="#181818" points="557,770.0469,561,761.0469,557,765.0469,553,761.0469,557,770.0469" style="stroke:#181818;stroke-width:1;"/></g><!--link Issue to TemplateIssueType--><g class="link" data-entity-1="Issue" data-entity-2="TemplateIssueType" data-source-line="79" data-uid="lnk21" id="link_Issue_TemplateIssueType"><path codeLine="79" d="M523.24,899.4069 C512.89,918.9069 504.4013,934.8863 494.3613,953.8163" fill="none" id="Issue-to-TemplateIssueType" style="stroke:#181818;stroke-width:1;"/><polygon fill="#181818" points="491.55,959.1169,499.3007,953.0402,493.8928,954.6997,492.2332,949.2917,491.55,959.1169" style="stroke:#181818;stroke-width:1;"/></g><!--link Issue to SourceLocation--><g class="link" data-entity-1="Issue" data-entity-2="SourceLocation" data-source-line="80" data-uid="lnk22" id="link_Issue_SourceLocation"><path codeLine="80" d="M590.76,899.4069 C602.6,921.7169 612.8779,941.0767 623.8979,961.8467" fill="none" id="Issue-to-SourceLocation" style="stroke:#181818;stroke-width:1;"/><polygon fill="#181818" points="626.71,967.1469,626.0253,957.3218,624.3666,962.7301,618.9583,961.0714,626.71,967.1469" style="stroke:#181818;stroke-width:1;"/></g><!--SRC=[VLJ1JXin4BtlLrWSsb28r7E4aA9KaQY0La1xhHnd4YpMzigUHOKAgPnwx3Vq3n1jLMXBls7pHvtrhZVUP054Y6VUZD-RyGnAJ849Ow4lieprMV6x-5FSBAuNr_tYHt5Nt1JV5v_fyo_zth3UualnayuFnR_YblxkcGVz8i1zyR2P9EvCwenRhfX8kND3H2idESAUCFfONW9xcIGP5sTy3cmZNBl1FYK9goBO2QWivGX3pTEBIx3aO_JJbsGUi63TezCBxzZo9YVT4RWyHSOhn8dbsb4UQVGxBR57zy_ad19asSX_tIRLAfCfZ8nIN4_TWBtbUBhvLD8nmRioPHIu3BzQYedf1Y5hyRK-vt8uWhbqQ2y6R2y-Lfnihj_eTLrT8kf2DGAY15v3HBW36Wi896lsMuf_31rw1LcPHUewFMW-IM7gcPzSP41a7E1EW3VstGhk1UzB9J7AWL9LjWCNMHsIOC5crgZNpkWL-b4T8-Qj0ZQFg3HIvdCGQEoEnzHqh8U2xNbCtG1AVsxaj4BC0OTfsYCRjT1XEycpcYczyH9H_l-07On27UMKG3GSUbuBfy8Cs5gjwgA3SpGnxOZK2FyC1kpOv5R0Vdskl5D0BbCNXNWce7ErVajDwj0SW9g03GUEufHYnxaMJU8IVY2TAdtUS9nF74hCIyIOhimjj6MtsGNzCtg6AtgaXgZdmgIvqi4GFqc7xwMJLFgGwxmyzhIPKZnv3-bBtBY-E0LnreYcrd6DqhDv8iX2PYpw4lKUQSusQuLlC-NcGTCobwTEAi3Ek00sgWRMZgqXcvu64RGr7Jm-pWwFZC48sZ773IQgrYZbrC5mLxb4GO56ryt31pvdnRVYTl6LrleT7TSMSh-_srfiX6djEU-FXdBDkRhRrW2ht3flQ9v1wLs-YQuBshkWGGIFjtIDtjAxCcB9LV8V]--></g></svg>