<svg xmlns="http://www.w3.org/2000/svg" xmlns:xlink="http://www.w3.org/1999/xlink" contentStyleType="text/css" data-diagram-type="CLASS" height="641px" preserveAspectRatio="none" style="width:1104px;height:641px;background:#FFFFFF;" version="1.1" viewBox="0 0 1104 641" width="1104px" zoomAndPan="magnify"><title>&#1052;&#1086;&#1076;&#1091;&#1083;&#1100; clion-plugin - &#1086;&#1089;&#1085;&#1086;&#1074;&#1085;&#1086;&#1081; API &#1080; &#1085;&#1072;&#1079;&#1085;&#1072;&#1095;&#1077;&#1085;&#1080;&#1077;</title><defs/><g><g class="title" data-source-line="2"><text fill="#000000" font-family="sans-serif" font-size="14" font-weight="bold" lengthAdjust="spacing" textLength="396.751" x="346.7747" y="22.9951">&#1052;&#1086;&#1076;&#1091;&#1083;&#1100; clion-plugin - &#1086;&#1089;&#1085;&#1086;&#1074;&#1085;&#1086;&#1081; API &#1080; &#1085;&#1072;&#1079;&#1085;&#1072;&#1095;&#1077;&#1085;&#1080;&#1077;</text></g><!--cluster clion-plugin--><g class="cluster" data-entity="clion-plugin" data-source-line="4" data-uid="ent0002" id="cluster_clion-plugin"><path d="M8.5,123.2969 L102.3662,123.2969 A3.75,3.75 0 0 1 104.8662,125.7969 L111.8662,145.5938 L682.5,145.5938 A2.5,2.5 0 0 1 685,148.0938 L685,631.7969 A2.5,2.5 0 0 1 682.5,634.2969 L8.5,634.2969 A2.5,2.5 0 0 1 6,631.7969 L6,125.7969 A2.5,2.5 0 0 1 8.5,123.2969" fill="none" style="stroke:#000000;stroke-width:1.5;"/><line style="stroke:#000000;stroke-width:1.5;" x1="6" x2="111.8662" y1="145.5938" y2="145.5938"/><text fill="#000000" font-family="sans-serif" font-size="14" font-weight="bold" lengthAdjust="spacing" textLength="92.8662" x="10" y="138.292">clion-plugin</text></g><!--class TemplateInsightPlugin--><g class="entity" data-entity="TemplateInsightPlugin" data-source-line="6" data-uid="ent0003" id="entity_TemplateInsightPlugin"><rect fill="#F1F1F1" height="80.5938" rx="2.5" ry="2.5" style="stroke:#181818;stroke-width:0.5;" width="188.5498" x="392.5" y="158.2969"/><ellipse cx="407.5" cy="174.2969" fill="#ADD1B2" rx="11" ry="11" style="stroke:#181818;stroke-width:1;"/><path d="M410.4688,179.9375 Q409.8906,180.2344 409.25,180.375 Q408.6094,180.5313 407.9063,180.5313 Q405.4063,180.5313 404.0781,178.8906 Q402.7656,177.2344 402.7656,174.1094 Q402.7656,170.9844 404.0781,169.3281 Q405.4063,167.6719 407.9063,167.6719 Q408.6094,167.6719 409.25,167.8281 Q409.9063,167.9844 410.4688,168.2813 L410.4688,171 Q409.8438,170.4219 409.25,170.1563 Q408.6563,169.875 408.0313,169.875 Q406.6875,169.875 406,170.9531 Q405.3125,172.0156 405.3125,174.1094 Q405.3125,176.2031 406,177.2813 Q406.6875,178.3438 408.0313,178.3438 Q408.6563,178.3438 409.25,178.0781 Q409.8438,177.7969 410.4688,177.2188 L410.4688,179.9375 Z " fill="#000000"/><text fill="#000000" font-family="sans-serif" font-size="14" lengthAdjust="spacing" textLength="156.5498" x="421.5" y="179.1436">TemplateInsightPlugin</text><line style="stroke:#181818;stroke-width:0.5;" x1="393.5" x2="580.0498" y1="190.2969" y2="190.2969"/><line style="stroke:#181818;stroke-width:0.5;" x1="393.5" x2="580.0498" y1="198.2969" y2="198.2969"/><ellipse cx="403.5" cy="211.9453" fill="#84BE84" rx="3" ry="3" style="stroke:#038048;stroke-width:1;"/><text fill="#000000" font-family="sans-serif" font-size="14" lengthAdjust="spacing" textLength="114.3447" x="412.5" y="215.292">initComponent()</text><ellipse cx="403.5" cy="228.2422" fill="#84BE84" rx="3" ry="3" style="stroke:#038048;stroke-width:1;"/><text fill="#000000" font-family="sans-serif" font-size="14" lengthAdjust="spacing" textLength="145.6328" x="412.5" y="231.5889">disposeComponent()</text></g><!--class InspectionProvider--><g class="entity" data-entity="InspectionProvider" data-source-line="11" data-uid="ent0004" id="entity_InspectionProvider"><rect fill="#F1F1F1" height="64.2969" rx="2.5" ry="2.5" style="stroke:#181818;stroke-width:0.5;" width="364.6045" x="304.5" y="299.2969"/><ellipse cx="417.2998" cy="315.2969" fill="#ADD1B2" rx="11" ry="11" style="stroke:#181818;stroke-width:1;"/><path d="M420.2686,320.9375 Q419.6904,321.2344 419.0498,321.375 Q418.4092,321.5313 417.7061,321.5313 Q415.2061,321.5313 413.8779,319.8906 Q412.5654,318.2344 412.5654,315.1094 Q412.5654,311.9844 413.8779,310.3281 Q415.2061,308.6719 417.7061,308.6719 Q418.4092,308.6719 419.0498,308.8281 Q419.7061,308.9844 420.2686,309.2813 L420.2686,312 Q419.6436,311.4219 419.0498,311.1563 Q418.4561,310.875 417.8311,310.875 Q416.4873,310.875 415.7998,311.9531 Q415.1123,313.0156 415.1123,315.1094 Q415.1123,317.2031 415.7998,318.2813 Q416.4873,319.3438 417.8311,319.3438 Q418.4561,319.3438 419.0498,319.0781 Q419.6436,318.7969 420.2686,318.2188 L420.2686,320.9375 Z " fill="#000000"/><text fill="#000000" font-family="sans-serif" font-size="14" lengthAdjust="spacing" textLength="130.5049" x="437.7998" y="320.1436">InspectionProvider</text><line style="stroke:#181818;stroke-width:0.5;" x1="305.5" x2="668.1045" y1="331.2969" y2="331.2969"/><line style="stroke:#181818;stroke-width:0.5;" x1="305.5" x2="668.1045" y1="339.2969" y2="339.2969"/><ellipse cx="315.5" cy="352.9453" fill="#84BE84" rx="3" ry="3" style="stroke:#038048;stroke-width:1;"/><text fill="#000000" font-family="sans-serif" font-size="14" lengthAdjust="spacing" textLength="338.6045" x="324.5" y="356.292">getInspectionTools(): List&lt;LocalInspectionTool&gt;</text></g><!--class AnalysisRunner--><g class="entity" data-entity="AnalysisRunner" data-source-line="15" data-uid="ent0005" id="entity_AnalysisRunner"><rect fill="#F1F1F1" height="64.2969" rx="2.5" ry="2.5" style="stroke:#181818;stroke-width:0.5;" width="315.2559" x="339.5" y="426.7969"/><ellipse cx="438.6792" cy="442.7969" fill="#ADD1B2" rx="11" ry="11" style="stroke:#181818;stroke-width:1;"/><path d="M441.6479,448.4375 Q441.0698,448.7344 440.4292,448.875 Q439.7886,449.0313 439.0854,449.0313 Q436.5854,449.0313 435.2573,447.3906 Q433.9448,445.7344 433.9448,442.6094 Q433.9448,439.4844 435.2573,437.8281 Q436.5854,436.1719 439.0854,436.1719 Q439.7886,436.1719 440.4292,436.3281 Q441.0854,436.4844 441.6479,436.7813 L441.6479,439.5 Q441.0229,438.9219 440.4292,438.6563 Q439.8354,438.375 439.2104,438.375 Q437.8667,438.375 437.1792,439.4531 Q436.4917,440.5156 436.4917,442.6094 Q436.4917,444.7031 437.1792,445.7813 Q437.8667,446.8438 439.2104,446.8438 Q439.8354,446.8438 440.4292,446.5781 Q441.0229,446.2969 441.6479,445.7188 L441.6479,448.4375 Z " fill="#000000"/><text fill="#000000" font-family="sans-serif" font-size="14" lengthAdjust="spacing" textLength="108.3975" x="459.1792" y="447.6436">AnalysisRunner</text><line style="stroke:#181818;stroke-width:0.5;" x1="340.5" x2="653.7559" y1="458.7969" y2="458.7969"/><line style="stroke:#181818;stroke-width:0.5;" x1="340.5" x2="653.7559" y1="466.7969" y2="466.7969"/><ellipse cx="350.5" cy="480.4453" fill="#84BE84" rx="3" ry="3" style="stroke:#038048;stroke-width:1;"/><text fill="#000000" font-family="sans-serif" font-size="14" lengthAdjust="spacing" textLength="289.2559" x="359.5" y="483.792">runAnalysis(project, files): AnalysisResult</text></g><!--class ResultMapper--><g class="entity" data-entity="ResultMapper" data-source-line="19" data-uid="ent0006" id="entity_ResultMapper"><rect fill="#F1F1F1" height="64.2969" rx="2.5" ry="2.5" style="stroke:#181818;stroke-width:0.5;" width="548.6895" x="22.5" y="554.2969"/><ellipse cx="244.251" cy="570.2969" fill="#ADD1B2" rx="11" ry="11" style="stroke:#181818;stroke-width:1;"/><path d="M247.2197,575.9375 Q246.6416,576.2344 246.001,576.375 Q245.3604,576.5313 244.6572,576.5313 Q242.1572,576.5313 240.8291,574.8906 Q239.5166,573.2344 239.5166,570.1094 Q239.5166,566.9844 240.8291,565.3281 Q242.1572,563.6719 244.6572,563.6719 Q245.3604,563.6719 246.001,563.8281 Q246.6572,563.9844 247.2197,564.2813 L247.2197,567 Q246.5947,566.4219 246.001,566.1563 Q245.4072,565.875 244.7822,565.875 Q243.4385,565.875 242.751,566.9531 Q242.0635,568.0156 242.0635,570.1094 Q242.0635,572.2031 242.751,573.2813 Q243.4385,574.3438 244.7822,574.3438 Q245.4072,574.3438 246.001,574.0781 Q246.5947,573.7969 247.2197,573.2188 L247.2197,575.9375 Z " fill="#000000"/><text fill="#000000" font-family="sans-serif" font-size="14" lengthAdjust="spacing" textLength="96.6875" x="264.751" y="575.1436">ResultMapper</text><line style="stroke:#181818;stroke-width:0.5;" x1="23.5" x2="570.1895" y1="586.2969" y2="586.2969"/><line style="stroke:#181818;stroke-width:0.5;" x1="23.5" x2="570.1895" y1="594.2969" y2="594.2969"/><ellipse cx="33.5" cy="607.9453" fill="#84BE84" rx="3" ry="3" style="stroke:#038048;stroke-width:1;"/><text fill="#000000" font-family="sans-serif" font-size="14" lengthAdjust="spacing" textLength="522.6895" x="42.5" y="611.292">toIdeProblemDescriptors(result: AnalysisResult): List&lt;ProblemDescriptor&gt;</text></g><!--class TiCli--><g class="entity" data-entity="TiCli" data-source-line="25" data-uid="ent0009" id="entity_TiCli"><rect fill="#F1F1F1" height="48" rx="2.5" ry="2.5" style="stroke:#181818;stroke-width:0.5;" width="61.9961" x="607" y="562.2969"/><ellipse cx="622" cy="578.2969" fill="#ADD1B2" rx="11" ry="11" style="stroke:#181818;stroke-width:1;"/><path d="M624.9688,583.9375 Q624.3906,584.2344 623.75,584.375 Q623.1094,584.5313 622.4063,584.5313 Q619.9063,584.5313 618.5781,582.8906 Q617.2656,581.2344 617.2656,578.1094 Q617.2656,574.9844 618.5781,573.3281 Q619.9063,571.6719 622.4063,571.6719 Q623.1094,571.6719 623.75,571.8281 Q624.4063,571.9844 624.9688,572.2813 L624.9688,575 Q624.3438,574.4219 623.75,574.1563 Q623.1563,573.875 622.5313,573.875 Q621.1875,573.875 620.5,574.9531 Q619.8125,576.0156 619.8125,578.1094 Q619.8125,580.2031 620.5,581.2813 Q621.1875,582.3438 622.5313,582.3438 Q623.1563,582.3438 623.75,582.0781 Q624.3438,581.7969 624.9688,581.2188 L624.9688,583.9375 Z " fill="#000000"/><text fill="#000000" font-family="sans-serif" font-size="14" lengthAdjust="spacing" textLength="29.9961" x="636" y="583.1436">TiCli</text><line style="stroke:#181818;stroke-width:0.5;" x1="608" x2="667.9961" y1="594.2969" y2="594.2969"/><line style="stroke:#181818;stroke-width:0.5;" x1="608" x2="667.9961" y1="602.2969" y2="602.2969"/></g><g class="entity" data-entity="GMN12" data-source-line="30" data-uid="ent0013" id="entity_GMN12"><path d="M311.5,43.2969 L311.5,98.6953 A0,0 0 0 0 311.5,98.6953 L483,98.6953 L487,158.1869 L491,98.6953 L662.6606,98.6953 A0,0 0 0 0 662.6606,98.6953 L662.6606,53.2969 L652.6606,43.2969 L311.5,43.2969 A0,0 0 0 0 311.5,43.2969" fill="#FEFFDD" style="stroke:#181818;stroke-width:0.5;"/><path d="M652.6606,43.2969 L652.6606,53.2969 L662.6606,53.2969 L652.6606,43.2969" fill="#FEFFDD" style="stroke:#181818;stroke-width:0.5;"/><text fill="#000000" font-family="sans-serif" font-size="13" lengthAdjust="spacing" textLength="86.125" x="317.5" y="60.3638">&#1053;&#1072;&#1079;&#1085;&#1072;&#1095;&#1077;&#1085;&#1080;&#1077;:</text><text fill="#000000" font-family="sans-serif" font-size="13" lengthAdjust="spacing" textLength="250.1357" x="317.5" y="75.4966">- &#1058;&#1086;&#1095;&#1082;&#1072; &#1074;&#1093;&#1086;&#1076;&#1072; &#1087;&#1083;&#1072;&#1075;&#1080;&#1085;&#1072; CLion / IntelliJ.</text><text fill="#000000" font-family="sans-serif" font-size="13" lengthAdjust="spacing" textLength="330.1606" x="317.5" y="90.6294">- &#1056;&#1077;&#1075;&#1080;&#1089;&#1090;&#1088;&#1080;&#1088;&#1091;&#1077;&#1090; &#1080;&#1085;&#1089;&#1087;&#1077;&#1082;&#1094;&#1080;&#1080;, &#1101;&#1082;&#1096;&#1077;&#1085;&#1099;, &#1084;&#1077;&#1085;&#1102; &#1080; &#1090;.&#1076;.</text></g><g class="entity" data-entity="GMN15" data-source-line="36" data-uid="ent0016" id="entity_GMN15"><path d="M700.5,423.2969 L700.5,454.7969 L654.82,458.7969 L700.5,462.7969 L700.5,493.8281 A0,0 0 0 0 700.5,493.8281 L1097.3003,493.8281 A0,0 0 0 0 1097.3003,493.8281 L1097.3003,433.2969 L1087.3003,423.2969 L700.5,423.2969 A0,0 0 0 0 700.5,423.2969" fill="#FEFFDD" style="stroke:#181818;stroke-width:0.5;"/><path d="M1087.3003,423.2969 L1087.3003,433.2969 L1097.3003,433.2969 L1087.3003,423.2969" fill="#FEFFDD" style="stroke:#181818;stroke-width:0.5;"/><text fill="#000000" font-family="sans-serif" font-size="13" lengthAdjust="spacing" textLength="86.125" x="706.5" y="440.3638">&#1053;&#1072;&#1079;&#1085;&#1072;&#1095;&#1077;&#1085;&#1080;&#1077;:</text><text fill="#000000" font-family="sans-serif" font-size="13" lengthAdjust="spacing" textLength="375.8003" x="706.5" y="455.4966">- &#1060;&#1086;&#1088;&#1084;&#1080;&#1088;&#1091;&#1077;&#1090; &#1082;&#1086;&#1084;&#1072;&#1085;&#1076;&#1091; &#1076;&#1083;&#1103; ti-cli (&#1080;&#1083;&#1080; &#1074;&#1099;&#1079;&#1099;&#1074;&#1072;&#1077;&#1090; core-cpp</text><text fill="#000000" font-family="sans-serif" font-size="13" lengthAdjust="spacing" textLength="320.7661" x="714.7646" y="470.6294">&#1085;&#1072;&#1087;&#1088;&#1103;&#1084;&#1091;&#1102;, &#1077;&#1089;&#1083;&#1080; &#1087;&#1086;&#1103;&#1074;&#1080;&#1090;&#1089;&#1103; embedded-&#1074;&#1072;&#1088;&#1080;&#1072;&#1085;&#1090;).</text><text fill="#000000" font-family="sans-serif" font-size="13" lengthAdjust="spacing" textLength="370.5444" x="706.5" y="485.7622">- &#1057;&#1086;&#1073;&#1080;&#1088;&#1072;&#1077;&#1090; &#1088;&#1077;&#1079;&#1091;&#1083;&#1100;&#1090;&#1072;&#1090;&#1099; &#1080; &#1087;&#1077;&#1088;&#1077;&#1076;&#1072;&#1105;&#1090; &#1080;&#1093; &#1074; ResultMapper.</text></g><!--link TemplateInsightPlugin to InspectionProvider--><g class="link" data-entity-1="TemplateInsightPlugin" data-entity-2="InspectionProvider" data-source-line="23" data-uid="lnk7" id="link_TemplateInsightPlugin_InspectionProvider"><path codeLine="23" d="M487,239.3069 C487,258.5069 487,275.2569 487,293.2069" fill="none" id="TemplateInsightPlugin-to-InspectionProvider" style="stroke:#181818;stroke-width:1;"/><polygon fill="#181818" points="487,299.2069,491,290.2069,487,294.2069,483,290.2069,487,299.2069" style="stroke:#181818;stroke-width:1;"/></g><!--link InspectionProvider to AnalysisRunner--><g class="link" data-entity-1="InspectionProvider" data-entity-2="AnalysisRunner" data-source-line="24" data-uid="lnk8" id="link_InspectionProvider_AnalysisRunner"><path codeLine="24" d="M489.47,363.3169 C491.01,382.6269 492.5033,401.3958 494.0433,420.7158" fill="none" id="InspectionProvider-to-AnalysisRunner" style="stroke:#181818;stroke-width:1;"/><polygon fill="#181818" points="494.52,426.6969,497.7922,417.4075,494.1227,421.7127,489.8175,418.0432,494.52,426.6969" style="stroke:#181818;stroke-width:1;"/></g><!--link AnalysisRunner to TiCli--><g class="link" data-entity-1="AnalysisRunner" data-entity-2="TiCli" data-source-line="25" data-uid="lnk10" id="link_AnalysisRunner_TiCli"><path codeLine="25" d="M531.85,490.8169 C556.65,512.8869 584.9388,538.067 607.4688,558.127" fill="none" id="AnalysisRunner-to-TiCli" style="stroke:#181818;stroke-width:1;"/><polygon fill="#181818" points="611.95,562.1169,607.8882,553.1446,608.2157,558.792,602.5683,559.1195,611.95,562.1169" style="stroke:#181818;stroke-width:1;"/><text fill="#000000" font-family="sans-serif" font-size="13" lengthAdjust="spacing" textLength="29.7832" x="572.6599" y="551.0828">uses</text></g><!--link AnalysisRunner to ResultMapper--><g class="link" data-entity-1="AnalysisRunner" data-entity-2="ResultMapper" data-source-line="26" data-uid="lnk11" id="link_AnalysisRunner_ResultMapper"><path codeLine="26" d="M447.56,490.8169 C416.79,510.1269 382.4428,531.6886 351.6428,551.0086" fill="none" id="AnalysisRunner-to-ResultMapper" style="stroke:#181818;stroke-width:1;"/><polygon fill="#181818" points="346.56,554.1969,356.3097,552.803,350.7957,551.54,352.0587,546.0259,346.56,554.1969" style="stroke:#181818;stroke-width:1;"/></g><!--SRC=[VLJHRX9157tdAsvuWiZYUsEQDFY2mOGOVc2xEyNHOMUoCvYOnWHeQatG4jyrgSOFg5XI15f-OUQFFBD0WK9ysDtPkVUSUyxTEsku4OpiDtjlRzoPdRhF50akaq29TfCd592zTrrxX_Wmk_-betgLx9ZmTcrl_TrTs16UOplAvLGOlGsRZFARB7awpUK8nA7Mr60j9KB3gedcpTUclgXpYZZH4vvmKv4j9HEMc49niHbphQHcs_iVrenWKYmog5TFvJiUitH5rsHc7Mn8ANIXU40rhispcen2iHqytAOzIaBnNdFzgfqaQygqdQm21PNADu2Nw8GBfi7y066wBSmstMBlPQZKcip8QimW-bYmrdEcevGh8rDTIBFSntmhwJk01-7xUni4XtjwXFGzZVEvsyQHzwWJFYVVrapdgS4hWk_FsFIRWxf46aP6Af8d-tM2ndxVdQa3x6CAVs8EB-p4NfCTkdC_hduvjrCW_Y0F6AhKO8MUmfTXGl0NvGNq2bH8SLtNSnqyEnZqaUkHHs6svmXFt4UyZKlalc3zoTTs_HBPMRQwzFFkUcLxKywn92PlPMaezVgzfPsc_SVBBtZfW7j3oWIEPW3S-MD8C3Tr0p8ym36Y0g1JV-A6hczlSGsHw56HJ5aGAPKDKtOUvs0Ss9axSvTGFuAx33X7mG5WOtIW2sBMEcPnpEB0K_cU-CgkLrmsx0V4_FRgbdMm6A5mzdjmFI1whayBtb4MmxTmNxEEkdF8tFhs6otx1m00]--></g></svg>