<svg xmlns="http://www.w3.org/2000/svg" xmlns:xlink="http://www.w3.org/1999/xlink" contentStyleType="text/css" data-diagram-type="CLASS" height="489px" preserveAspectRatio="none" style="width:1165px;height:489px;background:#FFFFFF;" version="1.1" viewBox="0 0 1165 489" width="1165px" zoomAndPan="magnify"><title>&#1052;&#1086;&#1076;&#1091;&#1083;&#1100; ti-cli - &#1087;&#1091;&#1073;&#1083;&#1080;&#1095;&#1085;&#1099;&#1081; &#1080;&#1085;&#1090;&#1077;&#1088;&#1092;&#1077;&#1081;&#1089; &#1080; &#1085;&#1072;&#1079;&#1085;&#1072;&#1095;&#1077;&#1085;&#1080;&#1077;</title><defs/><g><g class="title" data-source-line="2"><text fill="#000000" font-family="sans-serif" font-size="14" font-weight="bold" lengthAdjust="spacing" textLength="416.6094" x="367.1953" y="22.9951">&#1052;&#1086;&#1076;&#1091;&#1083;&#1100; ti-cli - &#1087;&#1091;&#1073;&#1083;&#1080;&#1095;&#1085;&#1099;&#1081; &#1080;&#1085;&#1090;&#1077;&#1088;&#1092;&#1077;&#1081;&#1089; &#1080; &#1085;&#1072;&#1079;&#1085;&#1072;&#1095;&#1077;&#1085;&#1080;&#1077;</text></g><!--cluster ti-cli--><g class="cluster" data-entity="ti-cli" data-source-line="4" data-uid="ent0002" id="cluster_ti-cli"><path d="M8.5,161.2969 L44.6982,161.2969 A3.75,3.75 0 0 1 47.1982,163.7969 L54.1982,183.5938 L1155.5,183.5938 A2.5,2.5 0 0 1 1158,186.0938 L1158,479.7969 A2.5,2.5 0 0 1 1155.5,482.2969 L8.5,482.2969 A2.5,2.5 0 0 1 6,479.7969 L6,163.7969 A2.5,2.5 0 0 1 8.5,161.2969" fill="none" style="stroke:#000000;stroke-width:1.5;"/><line style="stroke:#000000;stroke-width:1.5;" x1="6" x2="54.1982" y1="183.5938" y2="183.5938"/><text fill="#000000" font-family="sans-serif" font-size="14" font-weight="bold" lengthAdjust="spacing" textLength="35.1982" x="10" y="176.292">ti-cli</text></g><!--class TiCli--><g class="entity" data-entity="TiCli" data-source-line="6" data-uid="ent0003" id="entity_TiCli"><rect fill="#F1F1F1" height="64.2969" rx="2.5" ry="2.5" style="stroke:#181818;stroke-width:0.5;" width="247.4229" x="527.5" y="196.2969"/><ellipse cx="631.9634" cy="212.2969" fill="#ADD1B2" rx="11" ry="11" style="stroke:#181818;stroke-width:1;"/><path d="M634.9321,217.9375 Q634.354,218.2344 633.7134,218.375 Q633.0728,218.5313 632.3696,218.5313 Q629.8696,218.5313 628.5415,216.8906 Q627.229,215.2344 627.229,212.1094 Q627.229,208.9844 628.5415,207.3281 Q629.8696,205.6719 632.3696,205.6719 Q633.0728,205.6719 633.7134,205.8281 Q634.3696,205.9844 634.9321,206.2813 L634.9321,209 Q634.3071,208.4219 633.7134,208.1563 Q633.1196,207.875 632.4946,207.875 Q631.1509,207.875 630.4634,208.9531 Q629.7759,210.0156 629.7759,212.1094 Q629.7759,214.2031 630.4634,215.2813 Q631.1509,216.3438 632.4946,216.3438 Q633.1196,216.3438 633.7134,216.0781 Q634.3071,215.7969 634.9321,215.2188 L634.9321,217.9375 Z " fill="#000000"/><text fill="#000000" font-family="sans-serif" font-size="14" lengthAdjust="spacing" textLength="29.9961" x="652.4634" y="217.1436">TiCli</text><line style="stroke:#181818;stroke-width:0.5;" x1="528.5" x2="773.9229" y1="228.2969" y2="228.2969"/><line style="stroke:#181818;stroke-width:0.5;" x1="528.5" x2="773.9229" y1="236.2969" y2="236.2969"/><ellipse cx="538.5" cy="249.9453" fill="#84BE84" rx="3" ry="3" style="stroke:#038048;stroke-width:1;"/><text fill="#000000" font-family="sans-serif" font-size="14" lengthAdjust="spacing" textLength="221.4229" x="547.5" y="253.292">int main(argc: int, argv: char**)</text></g><!--class CliOptions--><g class="entity" data-entity="CliOptions" data-source-line="10" data-uid="ent0004" id="entity_CliOptions"><rect fill="#F1F1F1" height="129.4844" rx="2.5" ry="2.5" style="stroke:#181818;stroke-width:0.5;" width="251.5723" x="22" y="337.2969"/><ellipse cx="107.75" cy="353.2969" fill="#ADD1B2" rx="11" ry="11" style="stroke:#181818;stroke-width:1;"/><path d="M110.7188,358.9375 Q110.1406,359.2344 109.5,359.375 Q108.8594,359.5313 108.1563,359.5313 Q105.6563,359.5313 104.3281,357.8906 Q103.0156,356.2344 103.0156,353.1094 Q103.0156,349.9844 104.3281,348.3281 Q105.6563,346.6719 108.1563,346.6719 Q108.8594,346.6719 109.5,346.8281 Q110.1563,346.9844 110.7188,347.2813 L110.7188,350 Q110.0938,349.4219 109.5,349.1563 Q108.9063,348.875 108.2813,348.875 Q106.9375,348.875 106.25,349.9531 Q105.5625,351.0156 105.5625,353.1094 Q105.5625,355.2031 106.25,356.2813 Q106.9375,357.3438 108.2813,357.3438 Q108.9063,357.3438 109.5,357.0781 Q110.0938,356.7969 110.7188,356.2188 L110.7188,358.9375 Z " fill="#000000"/><text fill="#000000" font-family="sans-serif" font-size="14" lengthAdjust="spacing" textLength="71.5723" x="128.25" y="358.1436">CliOptions</text><line style="stroke:#181818;stroke-width:0.5;" x1="23" x2="272.5723" y1="369.2969" y2="369.2969"/><ellipse cx="33" cy="382.9453" fill="none" rx="3" ry="3" style="stroke:#038048;stroke-width:1;"/><text fill="#000000" font-family="sans-serif" font-size="14" lengthAdjust="spacing" textLength="123.5801" x="42" y="386.292">configPath: string</text><ellipse cx="33" cy="399.2422" fill="none" rx="3" ry="3" style="stroke:#038048;stroke-width:1;"/><text fill="#000000" font-family="sans-serif" font-size="14" lengthAdjust="spacing" textLength="215.168" x="42" y="402.5889">compileCommandsPath: string</text><ellipse cx="33" cy="415.5391" fill="none" rx="3" ry="3" style="stroke:#038048;stroke-width:1;"/><text fill="#000000" font-family="sans-serif" font-size="14" lengthAdjust="spacing" textLength="145.6123" x="42" y="418.8857">outputFormat: string</text><ellipse cx="33" cy="431.8359" fill="none" rx="3" ry="3" style="stroke:#038048;stroke-width:1;"/><text fill="#000000" font-family="sans-serif" font-size="14" lengthAdjust="spacing" textLength="126.916" x="42" y="435.1826">outputPath: string</text><line style="stroke:#181818;stroke-width:0.5;" x1="23" x2="272.5723" y1="442.4844" y2="442.4844"/><ellipse cx="33" cy="456.1328" fill="#84BE84" rx="3" ry="3" style="stroke:#038048;stroke-width:1;"/><text fill="#000000" font-family="sans-serif" font-size="14" lengthAdjust="spacing" textLength="225.5723" x="42" y="459.4795">int parse(argc: int, argv: char**)</text></g><!--class JsonReporter--><g class="entity" data-entity="JsonReporter" data-source-line="18" data-uid="ent0005" id="entity_JsonReporter"><rect fill="#F1F1F1" height="64.2969" rx="2.5" ry="2.5" style="stroke:#181818;stroke-width:0.5;" width="346.9336" x="309.5" y="369.7969"/><ellipse cx="433.5825" cy="385.7969" fill="#ADD1B2" rx="11" ry="11" style="stroke:#181818;stroke-width:1;"/><path d="M436.5513,391.4375 Q435.9731,391.7344 435.3325,391.875 Q434.6919,392.0313 433.9888,392.0313 Q431.4888,392.0313 430.1606,390.3906 Q428.8481,388.7344 428.8481,385.6094 Q428.8481,382.4844 430.1606,380.8281 Q431.4888,379.1719 433.9888,379.1719 Q434.6919,379.1719 435.3325,379.3281 Q435.9888,379.4844 436.5513,379.7813 L436.5513,382.5 Q435.9263,381.9219 435.3325,381.6563 Q434.7388,381.375 434.1138,381.375 Q432.77,381.375 432.0825,382.4531 Q431.395,383.5156 431.395,385.6094 Q431.395,387.7031 432.0825,388.7813 Q432.77,389.8438 434.1138,389.8438 Q434.7388,389.8438 435.3325,389.5781 Q435.9263,389.2969 436.5513,388.7188 L436.5513,391.4375 Z " fill="#000000"/><text fill="#000000" font-family="sans-serif" font-size="14" lengthAdjust="spacing" textLength="90.2686" x="454.0825" y="390.6436">JsonReporter</text><line style="stroke:#181818;stroke-width:0.5;" x1="310.5" x2="655.4336" y1="401.7969" y2="401.7969"/><line style="stroke:#181818;stroke-width:0.5;" x1="310.5" x2="655.4336" y1="409.7969" y2="409.7969"/><ellipse cx="320.5" cy="423.4453" fill="#84BE84" rx="3" ry="3" style="stroke:#038048;stroke-width:1;"/><text fill="#000000" font-family="sans-serif" font-size="14" lengthAdjust="spacing" textLength="320.9336" x="329.5" y="426.792">void write(result: AnalysisResult, path: string)</text></g><!--class StdoutReporter--><g class="entity" data-entity="StdoutReporter" data-source-line="22" data-uid="ent0006" id="entity_StdoutReporter"><rect fill="#F1F1F1" height="64.2969" rx="2.5" ry="2.5" style="stroke:#181818;stroke-width:0.5;" width="256.8496" x="691.5" y="369.7969"/><ellipse cx="761.876" cy="385.7969" fill="#ADD1B2" rx="11" ry="11" style="stroke:#181818;stroke-width:1;"/><path d="M764.8447,391.4375 Q764.2666,391.7344 763.626,391.875 Q762.9854,392.0313 762.2822,392.0313 Q759.7822,392.0313 758.4541,390.3906 Q757.1416,388.7344 757.1416,385.6094 Q757.1416,382.4844 758.4541,380.8281 Q759.7822,379.1719 762.2822,379.1719 Q762.9854,379.1719 763.626,379.3281 Q764.2822,379.4844 764.8447,379.7813 L764.8447,382.5 Q764.2197,381.9219 763.626,381.6563 Q763.0322,381.375 762.4072,381.375 Q761.0635,381.375 760.376,382.4531 Q759.6885,383.5156 759.6885,385.6094 Q759.6885,387.7031 760.376,388.7813 Q761.0635,389.8438 762.4072,389.8438 Q763.0322,389.8438 763.626,389.5781 Q764.2197,389.2969 764.8447,388.7188 L764.8447,391.4375 Z " fill="#000000"/><text fill="#000000" font-family="sans-serif" font-size="14" lengthAdjust="spacing" textLength="107.5977" x="782.376" y="390.6436">StdoutReporter</text><line style="stroke:#181818;stroke-width:0.5;" x1="692.5" x2="947.3496" y1="401.7969" y2="401.7969"/><line style="stroke:#181818;stroke-width:0.5;" x1="692.5" x2="947.3496" y1="409.7969" y2="409.7969"/><ellipse cx="702.5" cy="423.4453" fill="#84BE84" rx="3" ry="3" style="stroke:#038048;stroke-width:1;"/><text fill="#000000" font-family="sans-serif" font-size="14" lengthAdjust="spacing" textLength="230.8496" x="711.5" y="426.792">void write(result: AnalysisResult)</text></g><!--class TemplateAnalyzer--><g class="entity" data-entity="TemplateAnalyzer" data-source-line="27" data-uid="ent0008" id="entity_TemplateAnalyzer"><rect fill="#F1F1F1" height="48" rx="2.5" ry="2.5" style="stroke:#181818;stroke-width:0.5;" width="159.1826" x="983.5" y="377.7969"/><ellipse cx="998.5" cy="393.7969" fill="#ADD1B2" rx="11" ry="11" style="stroke:#181818;stroke-width:1;"/><path d="M1001.4688,399.4375 Q1000.8906,399.7344 1000.25,399.875 Q999.6094,400.0313 998.9063,400.0313 Q996.4063,400.0313 995.0781,398.3906 Q993.7656,396.7344 993.7656,393.6094 Q993.7656,390.4844 995.0781,388.8281 Q996.4063,387.1719 998.9063,387.1719 Q999.6094,387.1719 1000.25,387.3281 Q1000.9063,387.4844 1001.4688,387.7813 L1001.4688,390.5 Q1000.8438,389.9219 1000.25,389.6563 Q999.6563,389.375 999.0313,389.375 Q997.6875,389.375 997,390.4531 Q996.3125,391.5156 996.3125,393.6094 Q996.3125,395.7031 997,396.7813 Q997.6875,397.8438 999.0313,397.8438 Q999.6563,397.8438 1000.25,397.5781 Q1000.8438,397.2969 1001.4688,396.7188 L1001.4688,399.4375 Z " fill="#000000"/><text fill="#000000" font-family="sans-serif" font-size="14" lengthAdjust="spacing" textLength="127.1826" x="1012.5" y="398.6436">TemplateAnalyzer</text><line style="stroke:#181818;stroke-width:0.5;" x1="984.5" x2="1141.6826" y1="409.7969" y2="409.7969"/><line style="stroke:#181818;stroke-width:0.5;" x1="984.5" x2="1141.6826" y1="417.7969" y2="417.7969"/></g><g class="entity" data-entity="GMN12" data-source-line="33" data-uid="ent0013" id="entity_GMN12"><path d="M472.5,43.2969 L472.5,113.8281 A0,0 0 0 0 472.5,113.8281 L647,113.8281 L651,195.9469 L655,113.8281 L829.4497,113.8281 A0,0 0 0 0 829.4497,113.8281 L829.4497,53.2969 L819.4497,43.2969 L472.5,43.2969 A0,0 0 0 0 472.5,43.2969" fill="#FEFFDD" style="stroke:#181818;stroke-width:0.5;"/><path d="M819.4497,43.2969 L819.4497,53.2969 L829.4497,53.2969 L819.4497,43.2969" fill="#FEFFDD" style="stroke:#181818;stroke-width:0.5;"/><text fill="#000000" font-family="sans-serif" font-size="13" lengthAdjust="spacing" textLength="86.125" x="478.5" y="60.3638">&#1053;&#1072;&#1079;&#1085;&#1072;&#1095;&#1077;&#1085;&#1080;&#1077;:</text><text fill="#000000" font-family="sans-serif" font-size="13" lengthAdjust="spacing" textLength="245.4131" x="478.5" y="75.4966">- &#1042;&#1093;&#1086;&#1076;&#1085;&#1072;&#1103; &#1090;&#1086;&#1095;&#1082;&#1072; &#1082;&#1086;&#1084;&#1072;&#1085;&#1076;&#1085;&#1086;&#1081; &#1089;&#1090;&#1088;&#1086;&#1082;&#1080;.</text><text fill="#000000" font-family="sans-serif" font-size="13" lengthAdjust="spacing" textLength="335.9497" x="478.5" y="90.6294">- &#1050;&#1086;&#1085;&#1074;&#1077;&#1088;&#1090;&#1080;&#1088;&#1091;&#1077;&#1090; &#1072;&#1088;&#1075;&#1091;&#1084;&#1077;&#1085;&#1090;&#1099; &#1087;&#1088;&#1086;&#1094;&#1077;&#1089;&#1089;&#1072; &#1074; AppConfig</text><text fill="#000000" font-family="sans-serif" font-size="13" lengthAdjust="spacing" textLength="270.791" x="486.7646" y="105.7622">&#1080; &#1074;&#1099;&#1079;&#1099;&#1074;&#1072;&#1077;&#1090; core-cpp::TemplateAnalyzer.</text></g><!--link TiCli to CliOptions--><g class="link" data-entity-1="TiCli" data-entity-2="CliOptions" data-source-line="26" data-uid="lnk7" id="link_TiCli_CliOptions"><path codeLine="26" d="M534.61,260.3869 C463.76,280.2769 371.83,307.8169 292,337.2969 C286.1,339.4769 285.6923,339.5772 279.6523,341.9572" fill="none" id="TiCli-to-CliOptions" style="stroke:#181818;stroke-width:1;"/><polygon fill="#181818" points="274.07,344.1569,283.9098,344.5789,278.7219,342.3238,280.977,337.1359,274.07,344.1569" style="stroke:#181818;stroke-width:1;"/></g><!--link TiCli to TemplateAnalyzer--><g class="link" data-entity-1="TiCli" data-entity-2="TemplateAnalyzer" data-source-line="27" data-uid="lnk9" id="link_TiCli_TemplateAnalyzer"><path codeLine="27" d="M763.41,260.3569 C824.77,279.1569 901.22,305.6069 966,337.2969 C989.14,348.6169 1008.4885,361.0364 1026.9585,374.0764" fill="none" id="TiCli-to-TemplateAnalyzer" style="stroke:#181818;stroke-width:1;"/><polygon fill="#181818" points="1031.86,377.5369,1026.8147,369.0784,1027.7754,374.6531,1022.2007,375.6138,1031.86,377.5369" style="stroke:#181818;stroke-width:1;"/><text fill="#000000" font-family="sans-serif" font-size="13" lengthAdjust="spacing" textLength="29.7832" x="891" y="303.3638">uses</text><text fill="#000000" font-family="sans-serif" font-size="13" lengthAdjust="spacing" textLength="8.271" x="1015.3054" y="366.8785">1</text></g><!--link TiCli to JsonReporter--><g class="link" data-entity-1="TiCli" data-entity-2="JsonReporter" data-source-line="28" data-uid="lnk10" id="link_TiCli_JsonReporter"><path codeLine="28" d="M620.58,260.3569 C590.22,291.3369 548.0489,334.3909 517.6789,365.3909" fill="none" id="TiCli-to-JsonReporter" style="stroke:#181818;stroke-width:1;"/><polygon fill="#181818" points="513.48,369.6769,522.6356,366.0472,516.9791,366.1052,516.921,360.4487,513.48,369.6769" style="stroke:#181818;stroke-width:1;"/></g><!--link TiCli to StdoutReporter--><g class="link" data-entity-1="TiCli" data-entity-2="StdoutReporter" data-source-line="29" data-uid="lnk11" id="link_TiCli_StdoutReporter"><path codeLine="29" d="M681.6,260.3569 C712.14,291.3369 754.5678,334.404 785.1278,365.404" fill="none" id="TiCli-to-StdoutReporter" style="stroke:#181818;stroke-width:1;"/><polygon fill="#181818" points="789.34,369.6769,785.8703,360.4595,785.8298,366.1162,780.1731,366.0757,789.34,369.6769" style="stroke:#181818;stroke-width:1;"/></g><!--SRC=[bL9DRnCn4BtlhnZbL4gtKgzxGAeYSU02Alq3riPDBNPjotQAe49AmjUXI4WS4Vo74bWr_KZu2-D_nFD6QPkcXt9OhsVcpNlZqGigL9Bu1y_vJtpFb_4B1PMNbQAS-2yol_YIf_4pp-89dnDFSHbp4uVn0pTy7aT84S_ubC_I2M23_vIRBBEYV2NwaZeBmWuTPnbHMGdlQLzr8N6CcEYnqe5geVI6SFso88HRXEjHGUMXS9kRZm1xTzEBpkSsAAFzag0q-a3rNuXmM90FJkd-CbzRLSckgMkXUtuTO0R13i9JuseHxgkiTwHPhN1UFd3OPzxeFMcD2z8jnpqogaUldGfomqa_g22zgqNrnYk_ryPRaBWHliFuClGmt7zpNhCiLf_dJsujSYNTsUdGlgnj9O9iETv2fg21bwkusqzRAQnEc45Lco0f64lcO843dd-kcwP07hxx5ZycFxQrhmI_pG6vu5F2CUShzCtQwXoEZACuZaDSBtYwlMZ_ZcZ6azQbOvXt21itSKnW6_9l15T93sqdoUBeZPzG7yLHKfZGhhNTrb3jPfEz9_3-6Ru9b1DHQPpCIskBukwUjZEfUvIUc_q3]--></g></svg>