<svg xmlns="http://www.w3.org/2000/svg" xmlns:xlink="http://www.w3.org/1999/xlink" contentStyleType="text/css" data-diagram-type="CLASS" height="754px" preserveAspectRatio="none" style="width:1423px;height:754px;background:#FFFFFF;" version="1.1" viewBox="0 0 1423 754" width="1423px" zoomAndPan="magnify"><title>&#1052;&#1086;&#1076;&#1091;&#1083;&#1100; core-cpp - &#1087;&#1091;&#1073;&#1083;&#1080;&#1095;&#1085;&#1099;&#1081; API &#1080; &#1085;&#1072;&#1079;&#1085;&#1072;&#1095;&#1077;&#1085;&#1080;&#1077;</title><defs/><g><g class="title" data-source-line="2"><text fill="#000000" font-family="sans-serif" font-size="14" font-weight="bold" lengthAdjust="spacing" textLength="387.5771" x="511.1619" y="22.9951">&#1052;&#1086;&#1076;&#1091;&#1083;&#1100; core-cpp - &#1087;&#1091;&#1073;&#1083;&#1080;&#1095;&#1085;&#1099;&#1081; API &#1080; &#1085;&#1072;&#1079;&#1085;&#1072;&#1095;&#1077;&#1085;&#1080;&#1077;</text></g><!--cluster core-cpp--><g class="cluster" data-entity="core-cpp" data-source-line="4" data-uid="ent0002" id="cluster_core-cpp"><path d="M8.5,123.2969 L77.9688,123.2969 A3.75,3.75 0 0 1 80.4688,125.7969 L87.4688,145.5938 L647.5,145.5938 A2.5,2.5 0 0 1 650,148.0938 L650,744.7969 A2.5,2.5 0 0 1 647.5,747.2969 L8.5,747.2969 A2.5,2.5 0 0 1 6,744.7969 L6,125.7969 A2.5,2.5 0 0 1 8.5,123.2969" fill="none" style="stroke:#000000;stroke-width:1.5;"/><line style="stroke:#000000;stroke-width:1.5;" x1="6" x2="87.4688" y1="145.5938" y2="145.5938"/><text fill="#000000" font-family="sans-serif" font-size="14" font-weight="bold" lengthAdjust="spacing" textLength="68.4688" x="10" y="138.292">core-cpp</text></g><!--class TemplateAnalyzer--><g class="entity" data-entity="TemplateAnalyzer" data-source-line="6" data-uid="ent0003" id="entity_TemplateAnalyzer"><rect fill="#F1F1F1" height="80.5938" rx="2.5" ry="2.5" style="stroke:#181818;stroke-width:0.5;" width="612.1064" x="22" y="158.2969"/><ellipse cx="260.2119" cy="174.2969" fill="#ADD1B2" rx="11" ry="11" style="stroke:#181818;stroke-width:1;"/><path d="M263.1807,179.9375 Q262.6025,180.2344 261.9619,180.375 Q261.3213,180.5313 260.6182,180.5313 Q258.1182,180.5313 256.79,178.8906 Q255.4775,177.2344 255.4775,174.1094 Q255.4775,170.9844 256.79,169.3281 Q258.1182,167.6719 260.6182,167.6719 Q261.3213,167.6719 261.9619,167.8281 Q262.6182,167.9844 263.1807,168.2813 L263.1807,171 Q262.5557,170.4219 261.9619,170.1563 Q261.3682,169.875 260.7432,169.875 Q259.3994,169.875 258.7119,170.9531 Q258.0244,172.0156 258.0244,174.1094 Q258.0244,176.2031 258.7119,177.2813 Q259.3994,178.3438 260.7432,178.3438 Q261.3682,178.3438 261.9619,178.0781 Q262.5557,177.7969 263.1807,177.2188 L263.1807,179.9375 Z " fill="#000000"/><text fill="#000000" font-family="sans-serif" font-size="14" lengthAdjust="spacing" textLength="127.1826" x="280.7119" y="179.1436">TemplateAnalyzer</text><line style="stroke:#181818;stroke-width:0.5;" x1="23" x2="633.1064" y1="190.2969" y2="190.2969"/><line style="stroke:#181818;stroke-width:0.5;" x1="23" x2="633.1064" y1="198.2969" y2="198.2969"/><ellipse cx="33" cy="211.9453" fill="#84BE84" rx="3" ry="3" style="stroke:#038048;stroke-width:1;"/><text fill="#000000" font-family="sans-serif" font-size="14" lengthAdjust="spacing" textLength="586.1064" x="42" y="215.292">AnalysisResult analyzeTranslationUnit(config: AppConfig, compileCommands: Path)</text><ellipse cx="33" cy="228.2422" fill="#84BE84" rx="3" ry="3" style="stroke:#038048;stroke-width:1;"/><text fill="#000000" font-family="sans-serif" font-size="14" lengthAdjust="spacing" textLength="401.1123" x="42" y="231.5889">AnalysisResult analyzeFile(config: AppConfig, path: Path)</text></g><!--class AppConfig--><g class="entity" data-entity="AppConfig" data-source-line="11" data-uid="ent0004" id="entity_AppConfig"><rect fill="#F1F1F1" height="80.5938" rx="2.5" ry="2.5" style="stroke:#181818;stroke-width:0.5;" width="285.5332" x="99" y="301.7969"/><ellipse cx="201.3818" cy="317.7969" fill="#ADD1B2" rx="11" ry="11" style="stroke:#181818;stroke-width:1;"/><path d="M204.3506,323.4375 Q203.7725,323.7344 203.1318,323.875 Q202.4912,324.0313 201.7881,324.0313 Q199.2881,324.0313 197.96,322.3906 Q196.6475,320.7344 196.6475,317.6094 Q196.6475,314.4844 197.96,312.8281 Q199.2881,311.1719 201.7881,311.1719 Q202.4912,311.1719 203.1318,311.3281 Q203.7881,311.4844 204.3506,311.7813 L204.3506,314.5 Q203.7256,313.9219 203.1318,313.6563 Q202.5381,313.375 201.9131,313.375 Q200.5693,313.375 199.8818,314.4531 Q199.1943,315.5156 199.1943,317.6094 Q199.1943,319.7031 199.8818,320.7813 Q200.5693,321.8438 201.9131,321.8438 Q202.5381,321.8438 203.1318,321.5781 Q203.7256,321.2969 204.3506,320.7188 L204.3506,323.4375 Z " fill="#000000"/><text fill="#000000" font-family="sans-serif" font-size="14" lengthAdjust="spacing" textLength="72.2695" x="221.8818" y="322.6436">AppConfig</text><line style="stroke:#181818;stroke-width:0.5;" x1="100" x2="383.5332" y1="333.7969" y2="333.7969"/><line style="stroke:#181818;stroke-width:0.5;" x1="100" x2="383.5332" y1="341.7969" y2="341.7969"/><ellipse cx="110" cy="355.4453" fill="#84BE84" rx="3" ry="3" style="stroke:#038048;stroke-width:1;"/><text fill="#000000" font-family="sans-serif" font-size="14" lengthAdjust="spacing" textLength="259.5332" x="119" y="358.792">loadFromJson(path: Path): AppConfig</text><ellipse cx="110" cy="371.7422" fill="#84BE84" rx="3" ry="3" style="stroke:#038048;stroke-width:1;"/><text fill="#000000" font-family="sans-serif" font-size="14" lengthAdjust="spacing" textLength="105.9297" x="119" y="375.0889">validate(): void</text></g><!--class Issue--><g class="entity" data-entity="Issue" data-source-line="16" data-uid="ent0005" id="entity_Issue"><rect fill="#F1F1F1" height="113.1875" rx="2.5" ry="2.5" style="stroke:#181818;stroke-width:0.5;" width="203.2422" x="424.5" y="445.2969"/><ellipse cx="503.7695" cy="461.2969" fill="#ADD1B2" rx="11" ry="11" style="stroke:#181818;stroke-width:1;"/><path d="M506.7383,466.9375 Q506.1602,467.2344 505.5195,467.375 Q504.8789,467.5313 504.1758,467.5313 Q501.6758,467.5313 500.3477,465.8906 Q499.0352,464.2344 499.0352,461.1094 Q499.0352,457.9844 500.3477,456.3281 Q501.6758,454.6719 504.1758,454.6719 Q504.8789,454.6719 505.5195,454.8281 Q506.1758,454.9844 506.7383,455.2813 L506.7383,458 Q506.1133,457.4219 505.5195,457.1563 Q504.9258,456.875 504.3008,456.875 Q502.957,456.875 502.2695,457.9531 Q501.582,459.0156 501.582,461.1094 Q501.582,463.2031 502.2695,464.2813 Q502.957,465.3438 504.3008,465.3438 Q504.9258,465.3438 505.5195,465.0781 Q506.1133,464.7969 506.7383,464.2188 L506.7383,466.9375 Z " fill="#000000"/><text fill="#000000" font-family="sans-serif" font-size="14" lengthAdjust="spacing" textLength="36.2031" x="524.2695" y="466.1436">Issue</text><line style="stroke:#181818;stroke-width:0.5;" x1="425.5" x2="626.7422" y1="477.2969" y2="477.2969"/><ellipse cx="435.5" cy="490.9453" fill="none" rx="3" ry="3" style="stroke:#038048;stroke-width:1;"/><text fill="#000000" font-family="sans-serif" font-size="14" lengthAdjust="spacing" textLength="62.1318" x="444.5" y="494.292">id: string</text><ellipse cx="435.5" cy="507.2422" fill="none" rx="3" ry="3" style="stroke:#038048;stroke-width:1;"/><text fill="#000000" font-family="sans-serif" font-size="14" lengthAdjust="spacing" textLength="177.2422" x="444.5" y="510.5889">type: TemplateIssueType</text><ellipse cx="435.5" cy="523.5391" fill="none" rx="3" ry="3" style="stroke:#038048;stroke-width:1;"/><text fill="#000000" font-family="sans-serif" font-size="14" lengthAdjust="spacing" textLength="112.2734" x="444.5" y="526.8857">message: string</text><ellipse cx="435.5" cy="539.8359" fill="none" rx="3" ry="3" style="stroke:#038048;stroke-width:1;"/><text fill="#000000" font-family="sans-serif" font-size="14" lengthAdjust="spacing" textLength="172.5664" x="444.5" y="543.1826">location: SourceLocation</text><line style="stroke:#181818;stroke-width:0.5;" x1="425.5" x2="626.7422" y1="550.4844" y2="550.4844"/></g><!--class TemplateIssueType--><g class="entity" data-entity="TemplateIssueType" data-source-line="23" data-uid="ent0006" id="entity_TemplateIssueType"><rect fill="#F1F1F1" height="113.1875" rx="2.5" ry="2.5" style="stroke:#181818;stroke-width:0.5;" width="168.8008" x="270.5" y="618.2969"/><ellipse cx="285.5" cy="634.2969" fill="#EB937F" rx="11" ry="11" style="stroke:#181818;stroke-width:1;"/><path d="M289.6094,640.2969 L281.8906,640.2969 L281.8906,627.9063 L289.6094,627.9063 L289.6094,630.0625 L284.3438,630.0625 L284.3438,632.7344 L289.1094,632.7344 L289.1094,634.8906 L284.3438,634.8906 L284.3438,638.1406 L289.6094,638.1406 L289.6094,640.2969 Z " fill="#000000"/><text fill="#000000" font-family="sans-serif" font-size="14" lengthAdjust="spacing" textLength="136.8008" x="299.5" y="639.1436">TemplateIssueType</text><line style="stroke:#181818;stroke-width:0.5;" x1="271.5" x2="438.3008" y1="650.2969" y2="650.2969"/><text fill="#000000" font-family="sans-serif" font-size="14" lengthAdjust="spacing" textLength="76.624" x="276.5" y="667.292">NoMember</text><text fill="#000000" font-family="sans-serif" font-size="14" lengthAdjust="spacing" textLength="143.7188" x="276.5" y="683.5889">NoMatchingFunction</text><text fill="#000000" font-family="sans-serif" font-size="14" lengthAdjust="spacing" textLength="101.876" x="276.5" y="699.8857">TypeMismatch</text><text fill="#000000" font-family="sans-serif" font-size="14" lengthAdjust="spacing" textLength="132.1523" x="276.5" y="716.1826">SubstitutionFailure</text><line style="stroke:#181818;stroke-width:0.5;" x1="271.5" x2="438.3008" y1="723.4844" y2="723.4844"/></g><!--class IssueRegistry--><g class="entity" data-entity="IssueRegistry" data-source-line="30" data-uid="ent0007" id="entity_IssueRegistry"><rect fill="#F1F1F1" height="80.5938" rx="2.5" ry="2.5" style="stroke:#181818;stroke-width:0.5;" width="211.3496" x="420.5" y="301.7969"/><ellipse cx="474.8525" cy="317.7969" fill="#ADD1B2" rx="11" ry="11" style="stroke:#181818;stroke-width:1;"/><path d="M477.8213,323.4375 Q477.2432,323.7344 476.6025,323.875 Q475.9619,324.0313 475.2588,324.0313 Q472.7588,324.0313 471.4307,322.3906 Q470.1182,320.7344 470.1182,317.6094 Q470.1182,314.4844 471.4307,312.8281 Q472.7588,311.1719 475.2588,311.1719 Q475.9619,311.1719 476.6025,311.3281 Q477.2588,311.4844 477.8213,311.7813 L477.8213,314.5 Q477.1963,313.9219 476.6025,313.6563 Q476.0088,313.375 475.3838,313.375 Q474.04,313.375 473.3525,314.4531 Q472.665,315.5156 472.665,317.6094 Q472.665,319.7031 473.3525,320.7813 Q474.04,321.8438 475.3838,321.8438 Q476.0088,321.8438 476.6025,321.5781 Q477.1963,321.2969 477.8213,320.7188 L477.8213,323.4375 Z " fill="#000000"/><text fill="#000000" font-family="sans-serif" font-size="14" lengthAdjust="spacing" textLength="94.1445" x="495.3525" y="322.6436">IssueRegistry</text><line style="stroke:#181818;stroke-width:0.5;" x1="421.5" x2="630.8496" y1="333.7969" y2="333.7969"/><line style="stroke:#181818;stroke-width:0.5;" x1="421.5" x2="630.8496" y1="341.7969" y2="341.7969"/><ellipse cx="431.5" cy="355.4453" fill="#84BE84" rx="3" ry="3" style="stroke:#038048;stroke-width:1;"/><text fill="#000000" font-family="sans-serif" font-size="14" lengthAdjust="spacing" textLength="185.3496" x="440.5" y="358.792">register(issue: Issue): void</text><ellipse cx="431.5" cy="371.7422" fill="#84BE84" rx="3" ry="3" style="stroke:#038048;stroke-width:1;"/><text fill="#000000" font-family="sans-serif" font-size="14" lengthAdjust="spacing" textLength="164.5068" x="440.5" y="375.0889">getAll(): vector&lt;Issue&gt;</text></g><!--class SourceLocation--><g class="entity" data-entity="SourceLocation" data-source-line="35" data-uid="ent0008" id="entity_SourceLocation"><rect fill="#F1F1F1" height="96.8906" rx="2.5" ry="2.5" style="stroke:#181818;stroke-width:0.5;" width="139.8506" x="475" y="626.2969"/><ellipse cx="490" cy="642.2969" fill="#ADD1B2" rx="11" ry="11" style="stroke:#181818;stroke-width:1;"/><path d="M492.9688,647.9375 Q492.3906,648.2344 491.75,648.375 Q491.1094,648.5313 490.4063,648.5313 Q487.9063,648.5313 486.5781,646.8906 Q485.2656,645.2344 485.2656,642.1094 Q485.2656,638.9844 486.5781,637.3281 Q487.9063,635.6719 490.4063,635.6719 Q491.1094,635.6719 491.75,635.8281 Q492.4063,635.9844 492.9688,636.2813 L492.9688,639 Q492.3438,638.4219 491.75,638.1563 Q491.1563,637.875 490.5313,637.875 Q489.1875,637.875 488.5,638.9531 Q487.8125,640.0156 487.8125,642.1094 Q487.8125,644.2031 488.5,645.2813 Q489.1875,646.3438 490.5313,646.3438 Q491.1563,646.3438 491.75,646.0781 Q492.3438,645.7969 492.9688,645.2188 L492.9688,647.9375 Z " fill="#000000"/><text fill="#000000" font-family="sans-serif" font-size="14" lengthAdjust="spacing" textLength="107.8506" x="504" y="647.1436">SourceLocation</text><line style="stroke:#181818;stroke-width:0.5;" x1="476" x2="613.8506" y1="658.2969" y2="658.2969"/><ellipse cx="486" cy="671.9453" fill="none" rx="3" ry="3" style="stroke:#038048;stroke-width:1;"/><text fill="#000000" font-family="sans-serif" font-size="14" lengthAdjust="spacing" textLength="70.6768" x="495" y="675.292">file: string</text><ellipse cx="486" cy="688.2422" fill="none" rx="3" ry="3" style="stroke:#038048;stroke-width:1;"/><text fill="#000000" font-family="sans-serif" font-size="14" lengthAdjust="spacing" textLength="52.6846" x="495" y="691.5889">line: int</text><ellipse cx="486" cy="704.5391" fill="none" rx="3" ry="3" style="stroke:#038048;stroke-width:1;"/><text fill="#000000" font-family="sans-serif" font-size="14" lengthAdjust="spacing" textLength="78.9551" x="495" y="707.8857">column: int</text><line style="stroke:#181818;stroke-width:0.5;" x1="476" x2="613.8506" y1="715.1875" y2="715.1875"/></g><g class="entity" data-entity="GMN14" data-source-line="49" data-uid="ent0015" id="entity_GMN14"><path d="M78,43.2969 L78,98.6953 A0,0 0 0 0 78,98.6953 L324,98.6953 L328,158.1869 L332,98.6953 L577.5942,98.6953 A0,0 0 0 0 577.5942,98.6953 L577.5942,53.2969 L567.5942,43.2969 L78,43.2969 A0,0 0 0 0 78,43.2969" fill="#FEFFDD" style="stroke:#181818;stroke-width:0.5;"/><path d="M567.5942,43.2969 L567.5942,53.2969 L577.5942,53.2969 L567.5942,43.2969" fill="#FEFFDD" style="stroke:#181818;stroke-width:0.5;"/><text fill="#000000" font-family="sans-serif" font-size="13" lengthAdjust="spacing" textLength="86.125" x="84" y="60.3638">&#1053;&#1072;&#1079;&#1085;&#1072;&#1095;&#1077;&#1085;&#1080;&#1077;:</text><text fill="#000000" font-family="sans-serif" font-size="13" lengthAdjust="spacing" textLength="431.6597" x="84" y="75.4966">- &#1042;&#1099;&#1089;&#1086;&#1082;&#1086;&#1091;&#1088;&#1086;&#1074;&#1085;&#1077;&#1074;&#1099;&#1081; &#1092;&#1072;&#1089;&#1072;&#1076; &#1076;&#1083;&#1103; &#1072;&#1085;&#1072;&#1083;&#1080;&#1079;&#1072; C++-&#1082;&#1086;&#1076;&#1072; &#1080; &#1096;&#1072;&#1073;&#1083;&#1086;&#1085;&#1086;&#1074;.</text><text fill="#000000" font-family="sans-serif" font-size="13" lengthAdjust="spacing" textLength="478.5942" x="84" y="90.6294">- &#1053;&#1077; &#1079;&#1085;&#1072;&#1077;&#1090; &#1087;&#1088;&#1086; IDE/CLI, &#1090;&#1086;&#1083;&#1100;&#1082;&#1086; &#1087;&#1088;&#1086; &#1074;&#1093;&#1086;&#1076;&#1085;&#1099;&#1077; &#1087;&#1072;&#1088;&#1072;&#1084;&#1077;&#1090;&#1088;&#1099; &#1080; &#1088;&#1077;&#1079;&#1091;&#1083;&#1100;&#1090;&#1072;&#1090;&#1099;.</text></g><g class="entity" data-entity="GMN17" data-source-line="55" data-uid="ent0018" id="entity_GMN17"><path d="M667,299.2969 L667,384.9609 L1001.1299,384.9609 L1001.1299,309.2969 L991.1299,299.2969 L667,299.2969" fill="#FEFFDD" style="stroke:#181818;stroke-width:0.5;"/><path d="M991.1299,299.2969 L991.1299,309.2969 L1001.1299,309.2969 L991.1299,299.2969" fill="#FEFFDD" style="stroke:#181818;stroke-width:1;"/><text fill="#000000" font-family="sans-serif" font-size="13" lengthAdjust="spacing" textLength="86.125" x="673" y="316.3638">&#1053;&#1072;&#1079;&#1085;&#1072;&#1095;&#1077;&#1085;&#1080;&#1077;:</text><text fill="#000000" font-family="sans-serif" font-size="13" lengthAdjust="spacing" textLength="174.5098" x="673" y="331.4966">- &#1050;&#1086;&#1085;&#1092;&#1080;&#1075;&#1091;&#1088;&#1072;&#1094;&#1080;&#1103; &#1072;&#1085;&#1072;&#1083;&#1080;&#1079;&#1072;:</text><text fill="#000000" font-family="sans-serif" font-size="13" lengthAdjust="spacing" textLength="198.9863" x="681.2646" y="346.6294">* &#1075;&#1083;&#1091;&#1073;&#1080;&#1085;&#1072; &#1072;&#1085;&#1072;&#1083;&#1080;&#1079;&#1072; &#1096;&#1072;&#1073;&#1083;&#1086;&#1085;&#1086;&#1074;</text><text fill="#000000" font-family="sans-serif" font-size="13" lengthAdjust="spacing" textLength="274.1807" x="681.2646" y="361.7622">* &#1074;&#1082;&#1083;&#1102;&#1095;&#1077;&#1085;&#1080;&#1077;/&#1086;&#1090;&#1082;&#1083;&#1102;&#1095;&#1077;&#1085;&#1080;&#1077; &#1090;&#1080;&#1087;&#1086;&#1074; &#1086;&#1096;&#1080;&#1073;&#1086;&#1082;</text><text fill="#000000" font-family="sans-serif" font-size="13" lengthAdjust="spacing" textLength="304.8652" x="681.2646" y="376.895">* &#1083;&#1080;&#1084;&#1080;&#1090;&#1099; &#1087;&#1086; &#1082;&#1086;&#1083;&#1080;&#1095;&#1077;&#1089;&#1090;&#1074;&#1091; &#1087;&#1088;&#1086;&#1073;&#1083;&#1077;&#1084; &#1080; &#1074;&#1088;&#1077;&#1084;&#1077;&#1085;&#1080;</text></g><g class="entity" data-entity="GMN20" data-source-line="63" data-uid="ent0021" id="entity_GMN20"><path d="M1035.5,306.7969 L1035.5,377.3281 L1416.9009,377.3281 L1416.9009,316.7969 L1406.9009,306.7969 L1035.5,306.7969" fill="#FEFFDD" style="stroke:#181818;stroke-width:0.5;"/><path d="M1406.9009,306.7969 L1406.9009,316.7969 L1416.9009,316.7969 L1406.9009,306.7969" fill="#FEFFDD" style="stroke:#181818;stroke-width:1;"/><text fill="#000000" font-family="sans-serif" font-size="13" lengthAdjust="spacing" textLength="86.125" x="1041.5" y="323.8638">&#1053;&#1072;&#1079;&#1085;&#1072;&#1095;&#1077;&#1085;&#1080;&#1077;:</text><text fill="#000000" font-family="sans-serif" font-size="13" lengthAdjust="spacing" textLength="292.4873" x="1041.5" y="338.9966">- &#1040;&#1082;&#1082;&#1091;&#1084;&#1091;&#1083;&#1080;&#1088;&#1091;&#1077;&#1090; &#1074;&#1089;&#1077; &#1085;&#1072;&#1081;&#1076;&#1077;&#1085;&#1085;&#1099;&#1077; &#1087;&#1088;&#1086;&#1073;&#1083;&#1077;&#1084;&#1099;.</text><text fill="#000000" font-family="sans-serif" font-size="13" lengthAdjust="spacing" textLength="360.4009" x="1041.5" y="354.1294">- &#1055;&#1088;&#1077;&#1076;&#1086;&#1089;&#1090;&#1072;&#1074;&#1083;&#1103;&#1077;&#1090; &#1091;&#1076;&#1086;&#1073;&#1085;&#1099;&#1081; &#1076;&#1086;&#1089;&#1090;&#1091;&#1087; &#1076;&#1083;&#1103; &#1089;&#1077;&#1088;&#1080;&#1072;&#1083;&#1080;&#1079;&#1072;&#1094;&#1080;&#1080;</text><text fill="#000000" font-family="sans-serif" font-size="13" lengthAdjust="spacing" textLength="105.2505" x="1049.7646" y="369.2622">&#1074; JSON/Protocol.</text></g><!--link TemplateAnalyzer to AppConfig--><g class="link" data-entity-1="TemplateAnalyzer" data-entity-2="AppConfig" data-source-line="41" data-uid="lnk9" id="link_TemplateAnalyzer_AppConfig"><path codeLine="41" d="M303.82,239.5869 C292.09,258.8769 281.1558,276.8693 269.4158,296.1893" fill="none" id="TemplateAnalyzer-to-AppConfig" style="stroke:#181818;stroke-width:1;"/><polygon fill="#181818" points="266.3,301.3169,274.3921,295.7028,268.8965,297.0439,267.5553,291.5483,266.3,301.3169" style="stroke:#181818;stroke-width:1;"/></g><!--link TemplateAnalyzer to IssueRegistry--><g class="link" data-entity-1="TemplateAnalyzer" data-entity-2="IssueRegistry" data-source-line="42" data-uid="lnk10" id="link_TemplateAnalyzer_IssueRegistry"><path codeLine="42" d="M383.42,239.3969 C410.65,258.8569 438.4884,278.7583 465.7184,298.2183" fill="none" id="TemplateAnalyzer-to-IssueRegistry" style="stroke:#181818;stroke-width:1;"/><polygon fill="#181818" points="470.6,301.7069,465.6034,293.2196,466.532,298.7997,460.9519,299.7283,470.6,301.7069" style="stroke:#181818;stroke-width:1;"/></g><!--link IssueRegistry to Issue--><g class="link" data-entity-1="IssueRegistry" data-entity-2="Issue" data-source-line="43" data-uid="lnk11" id="link_IssueRegistry_Issue"><path codeLine="43" d="M526,383.0369 C526,401.8169 526,418.5469 526,439.0069" fill="none" id="IssueRegistry-to-Issue" style="stroke:#181818;stroke-width:1;"/><polygon fill="#181818" points="526,445.0069,530,436.0069,526,440.0069,522,436.0069,526,445.0069" style="stroke:#181818;stroke-width:1;"/></g><!--link Issue to TemplateIssueType--><g class="link" data-entity-1="Issue" data-entity-2="TemplateIssueType" data-source-line="44" data-uid="lnk12" id="link_Issue_TemplateIssueType"><path codeLine="44" d="M470.48,558.3169 C451.27,577.5269 433.9926,594.8042 414.7726,614.0242" fill="none" id="Issue-to-TemplateIssueType" style="stroke:#181818;stroke-width:1;"/><polygon fill="#181818" points="410.53,618.2669,419.7224,614.7313,414.0655,614.7313,414.0655,609.0745,410.53,618.2669" style="stroke:#181818;stroke-width:1;"/></g><!--link Issue to SourceLocation--><g class="link" data-entity-1="Issue" data-entity-2="SourceLocation" data-source-line="45" data-uid="lnk13" id="link_Issue_SourceLocation"><path codeLine="45" d="M532.17,558.3169 C534.6,580.1569 536.699,599.0334 539.029,620.0534" fill="none" id="Issue-to-SourceLocation" style="stroke:#181818;stroke-width:1;"/><polygon fill="#181818" points="539.69,626.0169,542.6741,616.631,539.1391,621.0473,534.7228,617.5124,539.69,626.0169" style="stroke:#181818;stroke-width:1;"/></g><!--link AppConfig to GMN17--><g class="link" data-entity-1="AppConfig" data-entity-2="GMN17" data-source-line="55" data-uid="lnk19" id="link_AppConfig_GMN17"><path d="M322.13,301.7869 C352.19,288.6869 387.16,275.8469 420.5,269.2969 C512.95,251.1269 539.7,253.0069 632.5,269.2969 C667.31,275.4069 704.04,287.0369 736.46,299.2469" fill="none" id="AppConfig-GMN17" style="stroke:#181818;stroke-width:1;stroke-dasharray:7,7;"/></g><!--link IssueRegistry to GMN20--><g class="link" data-entity-1="IssueRegistry" data-entity-2="GMN20" data-source-line="63" data-uid="lnk22" id="link_IssueRegistry_GMN20"><path d="M588.97,301.6669 C612.62,288.6369 640.37,275.8869 667.5,269.2969 C811.75,234.2769 854.89,246.0569 1001.5,269.2969 C1047.85,276.6469 1097.65,292.0169 1138.54,306.7769" fill="none" id="IssueRegistry-GMN20" style="stroke:#181818;stroke-width:1;stroke-dasharray:7,7;"/></g><!--SRC=[VLNRJjj047tFLwnuIWk1zwX2GcaZ1G55G3_0E4jOrVPQzXg9LfL2w4rArLPzh8hw2o748a0Wlx3xHpspZicrv27spkNCp9cTiHBAuqp_qG-wPyxrdVd6N1dnaXk6hCJq4B9BVQVxvek-DsrzmpPsQqptcRxN7NrD_z2aUFPrMYY4ZllMQN2sb6CiiVU50cEkvyGnE-1-w3cARmIET_gEHz0n_9RjEHRn7eyJJp4dKnz4JX33NCZWJI1KqPN1aMYKsKOOLkph2ZBrG-7nYlHz9wZ7PRRhgEDdJu5MORu8AOJZsFt3EET7cpnPJphrQYJzpLW6nGct2RZCyCJnH1tL5g4waQ8-ZLkBuuJdcA9UPh6AH31oLQSXBp_IPKqF8CgKFezZS3pjuKdNCbLc-pA9NBurEkT1UP3uyu2Z-3joc_k7FCeFZdAFWLnD0dU4mHYPRulO9vqLx2U7iH8g8Okg8xmauWigtECDWJnFyqeZU-PHKP2sd1cD2O95WwiDpxEaSLV9w8KrMP_6dYuo1pz2SsTe4G4a8b3PqPLUuWUvmEBDtSbIQNsgamiDfcg3qNIjZnQvnaeMjNEidMaRSWkauap9aCcZkIJWgY_c1x0CEORsbscRCmpqhNumvwQ9joxqgUxQ0JOVuN86vnxJFGpy3uPtccPCEG0xhBAyN29VQ3iqwkOhbBG47c06hDKioeLEMPQ0JasBLWKYiThBLskLhTeACotOOfqGKgv41fyiBgqIU0-HIHF-0q8mJTEsuPf8zJhRHG3fGDDUBV2WpeYH4I-HQ1mhOcQoLKzGyfkIH-LzVMKfwPZFs6cpfPVjDNdEz1M2q-BhatQMdra-SgSkIhqptyUnry1_QrP8nFHHEHmPz5znkAHUvIWKPO3SMiJ6a4YZLcGRE3LdyEwQyn6XDejK3-n2xbhY1bcS__8rUtEVuEmd8j-2XW7r0l6RUDfETt5zqkmBS8DcabVUqCcig6qMwA_Dh8TgAVqEYCAjir10x5c7xDkIsq0yp2ydnO9_Vzm0QXqg9Bx0uUR-wvsrtKWgYUcUk2V_0000]--></g></svg>